#define arabic_star_width 50
#define arabic_star_height 50
static unsigned char arabic_star_bits[] = {
   0x00, 0x00, 0x08, 0x61, 0x00, 0x00, 0x00, 0x00, 0x00, 0x90, 0x30, 0x00,
   0x00, 0x00, 0x00, 0x00, 0x60, 0x18, 0x00, 0x00, 0x00, 0x00, 0x00, 0x20,
   0x1c, 0x00, 0x00, 0x00, 0x00, 0x00, 0x10, 0x26, 0x00, 0x00, 0x00, 0x00,
   0x00, 0x08, 0x43, 0x00, 0x00, 0x00, 0x00, 0x00, 0x84, 0x83, 0x00, 0x00,
   0x00, 0x00, 0x00, 0xc2, 0x04, 0x01, 0x00, 0x00, 0x00, 0xff, 0x61, 0x08,
   0x02, 0x00, 0x00, 0x00, 0x01, 0x30, 0x12, 0xfc, 0x03, 0x00, 0x00, 0x55,
   0x19, 0x25, 0x00, 0x02, 0x00, 0x00, 0xa9, 0x8e, 0x4a, 0xaa, 0x16, 0x00,
   0x00, 0xf5, 0x47, 0x85, 0x00, 0x22, 0x00, 0x00, 0x19, 0xa0, 0x02, 0xbf,
   0x56, 0x00, 0x00, 0x15, 0x55, 0x01, 0x60, 0x22, 0x00, 0x00, 0x99, 0xaa,
   0x00, 0xa0, 0x56, 0x00, 0x00, 0x15, 0x55, 0x00, 0x60, 0xa2, 0x00, 0x80,
   0x98, 0x02, 0x00, 0xa0, 0x44, 0x01, 0x40, 0x18, 0x01, 0x00, 0x60, 0x88,
   0x00, 0x21, 0x8c, 0x02, 0x00, 0x40, 0x10, 0x02, 0x12, 0x46, 0x01, 0x00,
   0x80, 0x20, 0x01, 0x0c, 0xa3, 0x02, 0x00, 0x00, 0xc1, 0x00, 0x88, 0x51,
   0x01, 0x00, 0x00, 0x82, 0x00, 0xd0, 0xa8, 0x00, 0x00, 0x00, 0x04, 0x01,
   0x60, 0x54, 0x00, 0x00, 0x00, 0x08, 0x02, 0x41, 0x2a, 0x00, 0x00, 0x00,
   0x18, 0x00, 0x82, 0x14, 0x00, 0x00, 0x00, 0x24, 0x00, 0x04, 0x09, 0x00,
   0x00, 0x00, 0x42, 0x00, 0x0c, 0x02, 0x00, 0x00, 0x00, 0xe1, 0x00, 0x12,
   0x04, 0x00, 0x00, 0x80, 0x30, 0x01, 0x21, 0x08, 0x00, 0x00, 0x40, 0x18,
   0x02, 0x40, 0x10, 0x00, 0x00, 0x20, 0x8c, 0x00, 0x80, 0x14, 0x00, 0x00,
   0xa0, 0x46, 0x01, 0x00, 0x11, 0x00, 0x00, 0x20, 0xa3, 0x02, 0x00, 0x15,
   0x00, 0x00, 0xa0, 0x52, 0x01, 0x00, 0x11, 0x00, 0x00, 0x20, 0xa3, 0x00,
   0x00, 0x15, 0x00, 0x00, 0xa0, 0x52, 0x00, 0x00, 0x11, 0x00, 0x00, 0x20,
   0x23, 0x00, 0x00, 0xf5, 0x0f, 0xc0, 0xbf, 0x52, 0x00, 0x00, 0xa1, 0x1a,
   0x20, 0x00, 0x23, 0x00, 0x00, 0x55, 0x25, 0x90, 0xaa, 0x52, 0x00, 0x00,
   0x01, 0x40, 0x08, 0x55, 0x23, 0x00, 0x00, 0xff, 0x83, 0x84, 0xff, 0x53,
   0x00, 0x00, 0x54, 0x05, 0xc3, 0x00, 0x20, 0x00, 0x00, 0x00, 0x08, 0x61,
   0x00, 0x50, 0x00, 0x00, 0x54, 0x91, 0x30, 0xaa, 0x2a, 0x00, 0x00, 0xa8,
   0x62, 0x18, 0x55, 0x55, 0x00, 0x00, 0x54, 0x25, 0x9c, 0xaa, 0x2a, 0x00,
   0x00, 0x00, 0x12, 0x26, 0x05, 0x00, 0x00, 0x00, 0x00, 0x08, 0x43, 0x02,
   0x00, 0x00};
