#define arabic_rect_width 50
#define arabic_rect_height 50
static unsigned char arabic_rect_bits[] = {
   0x00, 0x40, 0x12, 0x40, 0x14, 0x00, 0x00, 0x00, 0x80, 0x20, 0x20, 0x0a,
   0x00, 0x00, 0x00, 0x00, 0x49, 0x10, 0x45, 0x00, 0x00, 0x00, 0x00, 0x82,
   0x88, 0x02, 0x00, 0x00, 0x00, 0x00, 0x24, 0x45, 0x51, 0x00, 0x00, 0x00,
   0x00, 0x08, 0xa2, 0x00, 0x00, 0x00, 0x00, 0x00, 0x10, 0x51, 0x14, 0x00,
   0x00, 0x00, 0x00, 0xa0, 0x28, 0x00, 0x00, 0x00, 0x00, 0x00, 0x40, 0x14,
   0x05, 0x00, 0x00, 0x01, 0x00, 0x20, 0x2a, 0x00, 0x00, 0x02, 0x02, 0x00,
   0x10, 0x45, 0x00, 0x00, 0x01, 0x04, 0xf0, 0x8f, 0x92, 0x3f, 0x80, 0x00,
   0x08, 0x08, 0x40, 0x05, 0x40, 0x40, 0x00, 0x11, 0x04, 0xa0, 0x08, 0x80,
   0x20, 0x02, 0x12, 0x52, 0x55, 0x50, 0x15, 0x21, 0x01, 0x11, 0xe9, 0x3f,
   0xe2, 0x5f, 0x22, 0x02, 0x92, 0x14, 0x00, 0x08, 0xa0, 0x24, 0x01, 0x52,
   0x0a, 0x80, 0x02, 0x40, 0x29, 0x01, 0x32, 0x85, 0x2a, 0x00, 0x80, 0x32,
   0x01, 0x92, 0x22, 0x80, 0x00, 0x00, 0x25, 0x01, 0x52, 0x81, 0x2a, 0x00,
   0x00, 0x4a, 0x00, 0xb2, 0x28, 0x00, 0x00, 0x00, 0x94, 0x00, 0x52, 0x00,
   0x00, 0x00, 0x00, 0x28, 0x01, 0x32, 0x0a, 0x00, 0x00, 0x00, 0x10, 0x01,
   0x12, 0x00, 0x00, 0x00, 0x00, 0x20, 0x01, 0x92, 0x02, 0x00, 0x00, 0x00,
   0x20, 0x01, 0x22, 0x00, 0x00, 0x00, 0x00, 0x30, 0x01, 0x4a, 0x00, 0x00,
   0x00, 0x00, 0x28, 0x01, 0x94, 0x00, 0x00, 0x00, 0x00, 0x24, 0x01, 0x28,
   0x01, 0x00, 0x00, 0x00, 0x32, 0x01, 0x52, 0x02, 0x00, 0x00, 0x00, 0x29,
   0x01, 0xb2, 0x04, 0x00, 0x00, 0x80, 0x34, 0x01, 0x52, 0x09, 0x00, 0x00,
   0x40, 0x2a, 0x01, 0x92, 0x12, 0x00, 0x00, 0x20, 0x25, 0x01, 0x11, 0xe5,
   0x3f, 0xe0, 0x9f, 0x22, 0x02, 0x18, 0x0a, 0x40, 0x10, 0x40, 0x61, 0x00,
   0x54, 0x14, 0x80, 0x08, 0xa0, 0xa8, 0x00, 0x0a, 0xa8, 0x0a, 0x45, 0x55,
   0x40, 0x01, 0x45, 0xf1, 0x0f, 0xa2, 0x3f, 0x8a, 0x02, 0x02, 0x00, 0x10,
   0x51, 0x00, 0x00, 0x01, 0x51, 0x05, 0xa0, 0x28, 0x80, 0x2a, 0x02, 0x00,
   0x50, 0x45, 0x14, 0x15, 0x00, 0x00, 0x14, 0x04, 0x20, 0x2a, 0x80, 0xa0,
   0x00, 0x00, 0x50, 0x11, 0x45, 0x14, 0x00, 0x02, 0x04, 0x00, 0x88, 0x8a,
   0x00, 0x80, 0x00, 0x00, 0x00, 0x44, 0x15, 0x01, 0x00, 0x02, 0x00, 0x00,
   0xa2, 0x48, 0x02, 0x00, 0x00, 0x00, 0x00, 0x51, 0x10, 0x04, 0x00, 0x00,
   0x00, 0x80, 0x28, 0x20, 0x09, 0x00, 0x00, 0x00, 0x40, 0x14, 0x40, 0x10,
   0x00, 0x00};
