#define bars_width 32
#define bars_height 8
static char bars_bits[] = {
   0x80, 0x18, 0x14, 0x80, 0x00, 0x28, 0x18, 0x00, 0x20, 0x18, 0x14, 0x20,
   0x00, 0x28, 0x18, 0x00, 0x08, 0x18, 0x14, 0x08, 0x00, 0x28, 0x18, 0x00,
   0x02, 0x18, 0x14, 0x02, 0x00, 0x28, 0x18, 0x00};
