#define noname_width 16
#define noname_height 16
static char noname_bits[] = {
 0x00,0x80,0xaa,0xaa,0x54,0xd5,0xaa,0xaa,0x54,0xd5,0xaa,0xaa,0x54,0xd5,0xaa,
 0xaa,0x54,0xd5,0xaa,0xaa,0x54,0xd5,0xaa,0xaa,0x54,0xd5,0xaa,0xaa,0x54,0xd5,
 0xff,0xff};
