#define noname_width 19
#define noname_height 19
static char noname_bits[] = {
 0x00,0x00,0x04,0xaa,0xaa,0x06,0x54,0x55,0x05,0xaa,0xaa,0x06,0x54,0x55,0x05,
 0xaa,0xaa,0x06,0x54,0x55,0x05,0xaa,0xaa,0x06,0x54,0x55,0x05,0xaa,0xaa,0x06,
 0x54,0x55,0x05,0xaa,0xaa,0x06,0x54,0x55,0x05,0xaa,0xaa,0x06,0x54,0x55,0x05,
 0xaa,0xaa,0x06,0x54,0x55,0x05,0xaa,0xaa,0x06,0xff,0xff,0x07};
