#define fancy_caning2_width 41
#define fancy_caning2_height 41
static unsigned char fancy_caning2_bits[] = {
   0x00, 0x40, 0x8a, 0x02, 0x00, 0x00, 0x00, 0x40, 0x16, 0x01, 0x00, 0x00,
   0x00, 0x60, 0x2a, 0x02, 0x00, 0x00, 0x00, 0x50, 0x52, 0x04, 0x00, 0x00,
   0x00, 0x48, 0xa2, 0x08, 0x00, 0x00, 0x00, 0x44, 0x42, 0x11, 0x00, 0x00,
   0x00, 0x62, 0x42, 0x22, 0x00, 0x00, 0x00, 0x51, 0x42, 0x44, 0x00, 0x00,
   0x80, 0x68, 0x42, 0x8a, 0x00, 0x00, 0x40, 0x54, 0x42, 0x16, 0x01, 0x00,
   0x20, 0x4a, 0x42, 0x2a, 0x02, 0x00, 0x10, 0x45, 0x42, 0x52, 0x04, 0x00,
   0x88, 0x42, 0x02, 0xa0, 0x08, 0x00, 0x45, 0x5f, 0xfa, 0xff, 0xbf, 0x01,
   0x22, 0x40, 0x02, 0x00, 0x00, 0x00, 0x11, 0x40, 0x02, 0x00, 0x00, 0x00,
   0xe8, 0x5f, 0xfa, 0xff, 0x7f, 0x01, 0x54, 0x55, 0x2a, 0x54, 0x95, 0x00,
   0xaa, 0x6a, 0x56, 0xaa, 0x6a, 0x00, 0x03, 0x40, 0x42, 0x02, 0x20, 0x00,
   0x04, 0x00, 0x40, 0x02, 0x10, 0x01, 0xff, 0xff, 0x5f, 0xfa, 0x8b, 0x01,
   0x00, 0x00, 0x40, 0x02, 0x44, 0x00, 0x00, 0x00, 0x40, 0x02, 0x22, 0x00,
   0xff, 0xff, 0x5f, 0x7a, 0xd1, 0x01, 0x8a, 0x2a, 0x68, 0xaa, 0x68, 0x01,
   0x15, 0x55, 0x56, 0x56, 0x94, 0x00, 0x28, 0x42, 0x42, 0x22, 0x0a, 0x00,
   0x50, 0x44, 0x42, 0x12, 0x05, 0x00, 0xa0, 0x48, 0x42, 0x8a, 0x02, 0x00,
   0x40, 0x51, 0x42, 0x46, 0x01, 0x00, 0x80, 0x22, 0x42, 0xa2, 0x00, 0x00,
   0x00, 0x45, 0x42, 0x52, 0x00, 0x00, 0x00, 0x8a, 0x42, 0x2a, 0x00, 0x00,
   0x00, 0x14, 0x41, 0x16, 0x00, 0x00, 0x00, 0x28, 0x62, 0x0a, 0x00, 0x00,
   0x00, 0x50, 0x54, 0x06, 0x00, 0x00, 0x00, 0xa0, 0x48, 0x02, 0x00, 0x00,
   0x00, 0x40, 0x51, 0x00, 0x00, 0x00, 0x00, 0x40, 0x22, 0x02, 0x00, 0x00,
   0x00, 0x40, 0x44, 0x02, 0x00, 0x00};
