#define seat_caning_width 50
#define seat_caning_height 50
static char seat_caning_bits[] = {
   0x2a, 0x00, 0x00, 0x50, 0x09, 0xa0, 0x02, 0xaa, 0xff, 0xff, 0x97, 0xf4,
   0xaf, 0x02, 0x2a, 0x00, 0x29, 0x50, 0x02, 0xa0, 0x02, 0x26, 0x00, 0x2a,
   0x20, 0x01, 0x20, 0x03, 0x12, 0x00, 0x28, 0x90, 0x00, 0x40, 0x02, 0x0e,
   0x00, 0x28, 0x48, 0x00, 0x80, 0x03, 0x02, 0x00, 0xa8, 0x24, 0x00, 0x00,
   0x02, 0x02, 0x00, 0x28, 0x53, 0x00, 0x00, 0x02, 0x02, 0x00, 0x28, 0x49,
   0x00, 0x00, 0x02, 0x02, 0x00, 0xa8, 0x54, 0x00, 0x00, 0x02, 0x02, 0x00,
   0x48, 0x52, 0x00, 0x00, 0x02, 0x02, 0x00, 0x28, 0x53, 0x00, 0x00, 0x02,
   0x02, 0x00, 0x90, 0x54, 0x00, 0x00, 0x02, 0x02, 0x00, 0x48, 0x50, 0x00,
   0x00, 0x00, 0x01, 0x00, 0x24, 0x50, 0x00, 0x00, 0x02, 0x02, 0x00, 0x12,
   0x50, 0x01, 0x00, 0x01, 0x04, 0x00, 0x29, 0x50, 0x02, 0x80, 0x00, 0x09,
   0x80, 0x24, 0xd0, 0x04, 0x40, 0x02, 0x12, 0x00, 0x2a, 0x50, 0x09, 0x20,
   0x01, 0xa5, 0xff, 0xff, 0xd7, 0xd2, 0xff, 0x03, 0x48, 0x00, 0x00, 0x50,
   0x24, 0x00, 0x00, 0x97, 0xfe, 0xff, 0xd7, 0x4b, 0xff, 0x03, 0x20, 0x01,
   0x00, 0x50, 0x90, 0x10, 0x00, 0x42, 0x12, 0x28, 0x50, 0x20, 0x09, 0x02,
   0x82, 0x0c, 0x28, 0x50, 0x40, 0x02, 0x02, 0x82, 0x09, 0x28, 0x50, 0x80,
   0x04, 0x02, 0x42, 0x12, 0x28, 0x50, 0x20, 0x09, 0x02, 0x02, 0x24, 0x28,
   0x00, 0x90, 0x12, 0x02, 0xfe, 0x4b, 0xaf, 0xff, 0xff, 0xa5, 0x03, 0x02,
   0x90, 0x28, 0x00, 0x00, 0x48, 0x02, 0xfe, 0x2f, 0xad, 0xff, 0xff, 0x97,
   0x02, 0x02, 0x40, 0x2a, 0x50, 0x00, 0x20, 0x03, 0x0a, 0x80, 0x2c, 0x90,
   0x04, 0x40, 0x02, 0x06, 0x00, 0x29, 0x50, 0x02, 0x80, 0x02, 0x02, 0x00,
   0x2a, 0x20, 0x01, 0x00, 0x03, 0x02, 0x00, 0x28, 0x90, 0x00, 0x00, 0x02,
   0x02, 0x00, 0x68, 0x48, 0x00, 0x00, 0x02, 0x02, 0x00, 0xa8, 0x24, 0x00,
   0x00, 0x02, 0x02, 0x00, 0x28, 0x52, 0x00, 0x00, 0x02, 0x02, 0x00, 0x68,
   0x49, 0x00, 0x00, 0x02, 0x02, 0x00, 0xa8, 0x54, 0x00, 0x00, 0x02, 0x02,
   0x00, 0x48, 0x5a, 0x00, 0x00, 0x02, 0x02, 0x00, 0x28, 0x51, 0x00, 0x00,
   0x02, 0x02, 0x00, 0x90, 0x54, 0x00, 0x00, 0x02, 0x02, 0x00, 0x48, 0x58,
   0x00, 0x00, 0x02, 0x0e, 0x00, 0x24, 0xd0, 0x00, 0x80, 0x03, 0x12, 0x00,
   0x12, 0x50, 0x01, 0x40, 0x02, 0x26, 0x00, 0x29, 0x50, 0x02, 0x20, 0x03,
   0x2a, 0x80, 0x24, 0xd0, 0x04, 0xa0, 0x02, 0xaa, 0xff, 0xff, 0x57, 0xe9,
   0xaf, 0x02};
