#define square_caning_width 50
#define square_caning_height 50
static char square_caning_bits[] = {
   0x40, 0x4a, 0x91, 0x00, 0x25, 0x05, 0x00, 0x20, 0x51, 0x49, 0x00, 0x95,
   0x08, 0x00, 0x90, 0x24, 0x24, 0x00, 0x45, 0x12, 0x00, 0x48, 0x48, 0x12,
   0x00, 0x25, 0x24, 0x00, 0x24, 0x90, 0x08, 0x00, 0x15, 0x48, 0x00, 0x12,
   0x20, 0x01, 0x00, 0x05, 0x90, 0x00, 0x09, 0x40, 0x02, 0x00, 0x05, 0x20,
   0x01, 0x04, 0x80, 0x04, 0x40, 0x05, 0x40, 0x02, 0x01, 0x10, 0x09, 0x20,
   0x05, 0x80, 0x00, 0x02, 0x48, 0x12, 0x10, 0x05, 0x00, 0x01, 0x04, 0x24,
   0x25, 0x48, 0x05, 0x40, 0x02, 0x09, 0x12, 0x49, 0x24, 0x05, 0x20, 0x00,
   0x12, 0x49, 0x11, 0x12, 0x05, 0x90, 0x00, 0x00, 0x00, 0x20, 0x09, 0x05,
   0x00, 0x00, 0xff, 0xff, 0x8f, 0x64, 0xf5, 0xff, 0x03, 0x00, 0x00, 0x40,
   0x02, 0x05, 0x00, 0x00, 0xff, 0xff, 0x27, 0x79, 0xf5, 0xff, 0x03, 0x00,
   0x00, 0x90, 0x00, 0x05, 0x00, 0x00, 0xa4, 0x44, 0x49, 0x24, 0x45, 0x02,
   0x00, 0x12, 0x49, 0x25, 0x48, 0x24, 0x01, 0x00, 0x09, 0x12, 0x11, 0x90,
   0x90, 0x00, 0x00, 0x04, 0x24, 0x09, 0x20, 0x49, 0x00, 0x02, 0x02, 0x48,
   0x04, 0x40, 0x22, 0x00, 0x01, 0x01, 0x90, 0x00, 0x80, 0x04, 0x80, 0x00,
   0x00, 0x20, 0x01, 0x00, 0x09, 0x40, 0x02, 0x00, 0x50, 0x02, 0x00, 0x12,
   0x20, 0x01, 0x00, 0x88, 0x04, 0x40, 0x24, 0x90, 0x00, 0x00, 0x04, 0x09,
   0x20, 0x49, 0x48, 0x00, 0x00, 0x52, 0x12, 0x90, 0x90, 0x24, 0x00, 0x00,
   0x49, 0x24, 0x48, 0x24, 0x12, 0x00, 0x80, 0x44, 0x49, 0x24, 0x45, 0x09,
   0x00, 0x40, 0x42, 0x01, 0x00, 0x80, 0x04, 0x00, 0x27, 0x59, 0xfd, 0xff,
   0x4f, 0xf2, 0x03, 0x90, 0x40, 0x01, 0x00, 0x20, 0x01, 0x00, 0x49, 0x5e,
   0xfd, 0xff, 0x97, 0xfc, 0x03, 0x24, 0x40, 0x01, 0x00, 0x48, 0x00, 0x00,
   0x12, 0x40, 0x91, 0x12, 0x25, 0x90, 0x00, 0x09, 0x40, 0x49, 0x24, 0x15,
   0x20, 0x01, 0x04, 0x40, 0x24, 0x48, 0x04, 0x40, 0x02, 0x01, 0x40, 0x12,
   0x90, 0x04, 0x80, 0x00, 0x02, 0x00, 0x09, 0x20, 0x01, 0x00, 0x01, 0x04,
   0x80, 0x04, 0x40, 0x02, 0x40, 0x02, 0x09, 0x40, 0x02, 0x90, 0x04, 0x20,
   0x00, 0x12, 0x20, 0x01, 0x08, 0x09, 0x90, 0x00, 0x24, 0x90, 0x00, 0x24,
   0x12, 0x48, 0x00, 0x48, 0x48, 0x00, 0x12, 0x24, 0x24, 0x00, 0x90, 0x24,
   0x01, 0x09, 0x49, 0x12, 0x00, 0x20, 0x12, 0x81, 0x04, 0x11, 0x09, 0x00,
   0x00, 0x49, 0x41, 0x02, 0x85, 0x04, 0x00, 0x80, 0x44, 0x21, 0x01, 0x45,
   0x02, 0x00};
