#define true_caning_width 50
#define true_caning_height 50
static char true_caning_bits[] = {
   0x00, 0x00, 0x90, 0x88, 0x02, 0x00, 0x00, 0x00, 0x00, 0x90, 0x45, 0x01,
   0x00, 0x00, 0x00, 0x00, 0x90, 0xa2, 0x00, 0x00, 0x00, 0x00, 0x00, 0x90,
   0x51, 0x00, 0x00, 0x00, 0x00, 0x00, 0x90, 0xa8, 0x01, 0x00, 0x00, 0x00,
   0x00, 0x50, 0x94, 0x00, 0x00, 0x00, 0x00, 0x00, 0x20, 0x8a, 0x01, 0x00,
   0x00, 0x00, 0x00, 0x10, 0x95, 0x00, 0x00, 0x00, 0x00, 0x00, 0x88, 0x92,
   0x01, 0x00, 0x00, 0x00, 0x00, 0x44, 0x91, 0x04, 0x00, 0x00, 0x00, 0x00,
   0xa2, 0x90, 0x09, 0x00, 0x00, 0x00, 0x00, 0xd1, 0x91, 0x14, 0x00, 0x00,
   0x00, 0x80, 0xa8, 0x90, 0x29, 0x00, 0x00, 0x00, 0x40, 0x94, 0x91, 0x50,
   0x00, 0x00, 0x00, 0x20, 0x8a, 0x90, 0xa1, 0x00, 0x00, 0x00, 0x10, 0x95,
   0x91, 0x44, 0x01, 0x00, 0x00, 0x88, 0x92, 0x90, 0x89, 0x02, 0x00, 0x00,
   0x44, 0x91, 0x91, 0x10, 0x05, 0x00, 0x00, 0xa2, 0x90, 0x90, 0x21, 0x0a,
   0x00, 0x00, 0x51, 0x90, 0x91, 0x40, 0x14, 0x00, 0x80, 0x28, 0x90, 0x90,
   0x81, 0x28, 0x00, 0x40, 0x14, 0x90, 0x91, 0x00, 0x51, 0x00, 0xff, 0xff,
   0xff, 0x9f, 0xfd, 0xa2, 0x03, 0x55, 0x55, 0x55, 0x95, 0xa8, 0x44, 0x01,
   0x00, 0x00, 0x00, 0x90, 0x01, 0x88, 0x02, 0xaa, 0xaa, 0xaa, 0x9a, 0x54,
   0x15, 0x01, 0xff, 0xff, 0xff, 0x9f, 0xfd, 0x2f, 0x02, 0x55, 0x00, 0x00,
   0x90, 0x00, 0x40, 0x00, 0x2a, 0x00, 0x90, 0x90, 0x01, 0x80, 0x00, 0x14,
   0x00, 0x90, 0x91, 0x00, 0x00, 0x01, 0x28, 0x00, 0x90, 0x90, 0x01, 0x80,
   0x02, 0x51, 0x00, 0x90, 0x01, 0x00, 0x40, 0x00, 0xa3, 0xfe, 0x9f, 0xfc,
   0xff, 0xff, 0x03, 0x46, 0xa9, 0x9a, 0xa9, 0xaa, 0xaa, 0x02, 0x88, 0x02,
   0x90, 0x00, 0x00, 0x00, 0x00, 0x15, 0x55, 0x95, 0x55, 0x55, 0x55, 0x01,
   0x2f, 0xea, 0x9f, 0xfc, 0xff, 0xff, 0x03, 0x40, 0x14, 0x90, 0x91, 0x00,
   0x51, 0x00, 0x80, 0x28, 0x90, 0x90, 0x81, 0x28, 0x00, 0x00, 0x51, 0x90,
   0x91, 0x40, 0x14, 0x00, 0x00, 0xa2, 0x90, 0x90, 0x21, 0x0a, 0x00, 0x00,
   0x44, 0x91, 0x91, 0x10, 0x05, 0x00, 0x00, 0x88, 0x92, 0x90, 0x89, 0x02,
   0x00, 0x00, 0x10, 0x95, 0x91, 0x44, 0x01, 0x00, 0x00, 0x20, 0x9a, 0x90,
   0xa2, 0x00, 0x00, 0x00, 0x40, 0x94, 0x11, 0x51, 0x00, 0x00, 0x00, 0x80,
   0x98, 0x90, 0x28, 0x00, 0x00, 0x00, 0x00, 0x91, 0x51, 0x14, 0x00, 0x00,
   0x00, 0x00, 0x92, 0x20, 0x0a, 0x00, 0x00, 0x00, 0x00, 0x94, 0x11, 0x05,
   0x00, 0x00};
