#define fancy_caning_width 50
#define fancy_caning_height 50
static unsigned char fancy_caning_bits[] = {
   0x00, 0x00, 0x88, 0xa0, 0x00, 0x00, 0x00, 0x00, 0x00, 0x10, 0xd1, 0x00,
   0x00, 0x00, 0x00, 0x00, 0x20, 0x92, 0x00, 0x00, 0x00, 0x00, 0x00, 0x50,
   0x14, 0x00, 0x00, 0x00, 0x00, 0x00, 0x90, 0x88, 0x00, 0x00, 0x00, 0x00,
   0x00, 0x10, 0x91, 0x00, 0x00, 0x00, 0x00, 0x00, 0x90, 0xa2, 0x00, 0x00,
   0x00, 0x00, 0x00, 0x90, 0x45, 0x00, 0x00, 0x00, 0x00, 0x00, 0x98, 0x8a,
   0x00, 0x00, 0x00, 0x00, 0x00, 0x94, 0x14, 0x01, 0x00, 0x00, 0x00, 0x00,
   0x92, 0x28, 0x02, 0x00, 0x00, 0x00, 0x00, 0x91, 0x50, 0x04, 0x00, 0x00,
   0x00, 0x80, 0x98, 0x90, 0x08, 0x00, 0x00, 0x00, 0x40, 0x94, 0x10, 0x11,
   0x00, 0x00, 0x00, 0x20, 0x9a, 0x90, 0x22, 0x00, 0x00, 0x00, 0x10, 0x95,
   0x90, 0x45, 0x00, 0x00, 0x00, 0x88, 0x92, 0x90, 0x8a, 0x00, 0x00, 0x00,
   0x44, 0x91, 0x90, 0x14, 0x01, 0x00, 0x00, 0xa2, 0x90, 0x00, 0x28, 0x02,
   0x00, 0x77, 0xd1, 0x97, 0xfe, 0xff, 0xff, 0x02, 0x82, 0x08, 0x90, 0x00,
   0x00, 0x00, 0x01, 0x41, 0x04, 0x90, 0x00, 0x00, 0x80, 0x00, 0x2e, 0xfa,
   0x97, 0xfe, 0xff, 0x5f, 0x00, 0x10, 0x55, 0x95, 0x0a, 0x55, 0x35, 0x02,
   0x88, 0xaa, 0x9a, 0x95, 0xaa, 0x1a, 0x01, 0xc4, 0x00, 0x90, 0x90, 0x00,
   0x88, 0x00, 0x22, 0x01, 0x00, 0x90, 0x00, 0x44, 0x00, 0xf1, 0xff, 0xff,
   0x97, 0xfe, 0xa2, 0x03, 0x08, 0x00, 0x00, 0x90, 0x00, 0x11, 0x01, 0x04,
   0x00, 0x00, 0x90, 0x80, 0x08, 0x02, 0xfe, 0xff, 0xff, 0x97, 0x5e, 0xf4,
   0x01, 0xaa, 0xa2, 0x0a, 0x9a, 0x2a, 0xaa, 0x02, 0x55, 0x45, 0x95, 0x95,
   0x15, 0x55, 0x01, 0x00, 0x8a, 0x90, 0x90, 0x88, 0x02, 0x00, 0x00, 0x14,
   0x91, 0x90, 0x44, 0x01, 0x00, 0x00, 0x28, 0x92, 0x90, 0xa2, 0x00, 0x00,
   0x00, 0x50, 0x94, 0x90, 0x51, 0x00, 0x00, 0x00, 0xa0, 0x88, 0x90, 0x28,
   0x00, 0x00, 0x00, 0x40, 0x91, 0x90, 0x14, 0x00, 0x00, 0x00, 0x80, 0xa2,
   0x90, 0x0a, 0x00, 0x00, 0x00, 0x00, 0x45, 0x90, 0x05, 0x00, 0x00, 0x00,
   0x00, 0x8a, 0x98, 0x02, 0x00, 0x00, 0x00, 0x00, 0x14, 0x95, 0x01, 0x00,
   0x00, 0x00, 0x00, 0x28, 0x92, 0x00, 0x00, 0x00, 0x00, 0x00, 0x50, 0x94,
   0x00, 0x00, 0x00, 0x00, 0x00, 0x90, 0x88, 0x00, 0x00, 0x00, 0x00, 0x00,
   0x00, 0x91, 0x00, 0x00, 0x00, 0x00, 0x00, 0x90, 0xa2, 0x00, 0x00, 0x00,
   0x00, 0x00, 0xb0, 0x44, 0x00, 0x00, 0x00, 0x00, 0x00, 0x50, 0x88, 0x00,
   0x00, 0x00};
