#define cinder_block_width 32
#define cinder_block_height 32
static char cinder_block_bits[] = {
   0xff, 0xff, 0xff, 0xff, 0x55, 0x55, 0x55, 0x95, 0x03, 0x08, 0x00, 0x40,
   0x95, 0x00, 0x08, 0x88, 0x03, 0x20, 0x81, 0x40, 0x05, 0x04, 0x00, 0xa0,
   0x43, 0x00, 0x10, 0x44, 0x05, 0x80, 0x00, 0x80, 0x0b, 0x12, 0x80, 0x40,
   0x25, 0x00, 0x00, 0x90, 0x03, 0x00, 0x08, 0x40, 0x05, 0x88, 0x00, 0x82,
   0x13, 0x01, 0x20, 0x40, 0x05, 0x20, 0x04, 0x90, 0x03, 0x00, 0x00, 0x40,
   0x55, 0x55, 0x55, 0x95, 0xff, 0xff, 0xff, 0xff, 0x55, 0xd5, 0x57, 0x95,
   0x00, 0x50, 0x53, 0x00, 0x82, 0x80, 0x05, 0x88, 0x08, 0x40, 0x83, 0x00,
   0x00, 0x84, 0x05, 0xa0, 0x40, 0x40, 0x23, 0x04, 0x04, 0x90, 0x05, 0x00,
   0x00, 0x40, 0x8b, 0x10, 0x00, 0x81, 0x05, 0x80, 0x10, 0x48, 0x23, 0x00,
   0x04, 0x80, 0x05, 0x11, 0x00, 0x40, 0x03, 0x00, 0x08, 0x91, 0x15, 0x04,
   0x00, 0x40, 0x03, 0x40, 0x55, 0xd5, 0x57, 0x95};
