#define flyseye_width 16
#define flyseye_height 16
static char flyseye_bits[] = {
 0x1f,0xe4,0x8f,0xd7,0x47,0xf7,0xa7,0xef,0xe4,0x1f,0xd7,0x8f,0xf7,0x47,0xef,
 0xa7,0x1f,0xe4,0x8f,0xd7,0x47,0xf7,0xa7,0xef,0xe4,0x1f,0xd7,0x8f,0xf7,0x47,
 0xef,0xa7};
