#define hex14_24_width 14
#define hex14_24_height 24
static char hex14_24_bits[] = {
 0x9f,0x3c,0xef,0x3b,0xf7,0x37,0xf9,0x0f,0xfe,0x3f,0xfe,0x3f,0xfe,0x3f,0xfe,
 0x3f,0xfe,0x3f,0xfe,0x3f,0xfe,0x3f,0xfe,0x3f,0xf9,0x0f,0xf7,0x37,0xef,0x3b,
 0x9f,0x3c,0x7f,0x3f,0x7f,0x3f,0x7f,0x3f,0x7f,0x3f,0x7f,0x3f,0x7f,0x3f,0x7f,
 0x3f,0x7f,0x3f};
