#define itchynscratchy_width 79
#define itchynscratchy_height 432
static char itchynscratchy_bits[] = {
 0x20,0x46,0x00,0x00,0x08,0x00,0x03,0x00,0x00,0x80,0x20,0x78,0x00,0x00,0x04,
 0x00,0x04,0x00,0x00,0x80,0x40,0x40,0x06,0x00,0x04,0x00,0x0f,0x00,0x00,0x80,
 0x40,0x80,0x06,0x00,0x02,0xf8,0x08,0x00,0x00,0x80,0x80,0x00,0x03,0x80,0x01,
 0x07,0x07,0x00,0x00,0x80,0x00,0x01,0x1c,0x70,0xc0,0x80,0x00,0x03,0x00,0x80,
 0x01,0x07,0xe0,0x0f,0x30,0x40,0x80,0x40,0x00,0xfe,0x1e,0x0d,0x00,0x00,0x08,
 0xc0,0x4f,0x80,0xc0,0x81,0xe1,0x34,0x00,0x00,0x06,0x20,0xf0,0x87,0x20,0xfc,
 0x00,0xc3,0x00,0x00,0x19,0xe0,0x41,0xb8,0x10,0x82,0x1f,0x04,0x03,0x00,0xe1,
 0x10,0x46,0xc0,0x10,0x80,0xe4,0x08,0x05,0x00,0x02,0x0f,0x88,0x80,0x20,0xf0,
 0x84,0x88,0x8c,0x00,0x04,0x08,0x08,0x41,0xc0,0x8f,0x08,0x85,0x12,0x01,0x18,
 0x30,0x04,0x20,0x00,0x84,0x30,0x82,0x21,0x02,0x24,0xc0,0x03,0x00,0x0c,0x8c,
 0xc0,0x04,0x40,0x02,0xc4,0x01,0x00,0x00,0x10,0xb0,0x01,0x19,0x40,0x04,0x38,
 0x0e,0x00,0x00,0x20,0xc0,0x00,0x62,0x80,0x84,0x2f,0x72,0x00,0x80,0x23,0xf0,
 0x00,0x8e,0x83,0x04,0xc1,0x81,0x1f,0x70,0x04,0x8f,0x00,0x31,0x7c,0x04,0x1e,
 0x0e,0xe2,0x0f,0x04,0x81,0x80,0xc0,0x01,0x02,0x08,0x31,0x44,0x08,0x82,0x80,
 0x80,0x00,0xfe,0xe1,0x07,0xc2,0x45,0x90,0x41,0x80,0x80,0x00,0x00,0x22,0xe0,
 0x07,0x8e,0x70,0xa0,0x80,0x40,0x80,0x03,0xcc,0x1c,0x0c,0xf4,0x0f,0x18,0x83,
 0x40,0x40,0x0c,0x74,0x03,0x10,0x04,0x00,0x07,0x84,0x40,0x80,0x31,0x84,0x00,
 0x20,0x78,0xe0,0x00,0x88,0x40,0x00,0x42,0x44,0x00,0x40,0xc0,0x1f,0xc0,0x8b,
 0x40,0x3c,0x84,0x42,0x00,0x40,0x80,0x00,0x30,0x8c,0x80,0xc2,0x08,0x23,0x00,
 0x80,0x00,0x00,0x08,0x90,0x80,0x1e,0x0b,0x21,0x00,0x80,0x00,0x78,0x04,0x90,
 0x00,0x21,0x14,0x12,0x00,0x00,0x01,0x86,0x03,0xa0,0x80,0x47,0x18,0x12,0x00,
 0x00,0x01,0x01,0x04,0xa6,0x40,0x98,0x10,0x14,0x00,0x00,0x81,0x00,0x08,0xa6,
 0xc0,0xe1,0x00,0x08,0x00,0x00,0x82,0x00,0x08,0xa0,0x07,0x06,0x00,0x00,0x00,
 0x03,0x42,0x00,0x10,0xf0,0x38,0x08,0x00,0x00,0x00,0x05,0x42,0x00,0xd0,0x93,
 0xc0,0x10,0x00,0x00,0x00,0x09,0x41,0x0c,0x30,0x8c,0x00,0x11,0x00,0x00,0x00,
 0xf2,0x40,0x0c,0x08,0x88,0x00,0x3d,0x1c,0x00,0x00,0x02,0x80,0x00,0x08,0x88,
 0x80,0x42,0x63,0x00,0x00,0x04,0x80,0x00,0x38,0x88,0x60,0x81,0x80,0x00,0x00,
 0x08,0x00,0x01,0xc4,0x87,0x9c,0x4c,0x00,0x01,0x00,0x30,0x00,0x06,0x03,0x80,
 0x93,0x4c,0x30,0x01,0x0c,0x40,0x00,0xf8,0x00,0xe0,0xd2,0x43,0x30,0x01,0xb4,
 0x31,0x00,0x00,0x00,0x90,0x35,0x4c,0x00,0x01,0x44,0x0e,0x00,0x00,0x00,0xf0,
 0x1e,0xb0,0x80,0x00,0x88,0x00,0x00,0x00,0x00,0x88,0x10,0x10,0x43,0x00,0x08,
 0x03,0x00,0x00,0x00,0x87,0x60,0x08,0x3c,0x00,0x08,0x7c,0x00,0x00,0xff,0x98,
 0x80,0x07,0x00,0x00,0x18,0x80,0x01,0xc0,0x14,0xe0,0x03,0x00,0x00,0x60,0x60,
 0x0c,0x01,0xa0,0x14,0x80,0x1c,0x00,0x00,0x80,0x80,0xf5,0x00,0x98,0x0a,0x80,
 0xe0,0x00,0x80,0x87,0xe0,0x08,0x00,0x94,0x0a,0x80,0x00,0x1f,0x70,0x08,0x1c,
 0x70,0x00,0xa4,0x0a,0x80,0x00,0xe0,0x8f,0x0b,0x02,0x80,0x03,0x42,0x0a,0x80,
 0x00,0x80,0x64,0x04,0x82,0x3f,0x3c,0x02,0x0a,0x80,0x00,0x70,0x92,0x03,0x71,
 0xc0,0x40,0x02,0x14,0x80,0x00,0x88,0x7f,0x80,0x08,0x00,0x43,0x04,0x7c,0x83,
 0x00,0x08,0x00,0x60,0x04,0x00,0x44,0xc4,0x87,0x84,0x00,0xf0,0x01,0x1c,0x02,
 0x00,0x88,0x24,0x18,0x85,0x00,0x40,0xfe,0x03,0x02,0x00,0x88,0x98,0x20,0x82,
 0x00,0x20,0x08,0x00,0x02,0x00,0x10,0xe1,0x21,0x82,0x80,0x1f,0x04,0x00,0x01,
 0x0e,0x10,0x02,0x41,0x84,0x78,0x60,0xe2,0x00,0x01,0x31,0x10,0x0c,0x02,0x84,
 0x06,0x80,0xba,0x00,0x01,0xc6,0x10,0xf2,0x03,0x84,0x01,0x00,0x47,0x03,0x01,
 0x08,0x11,0x01,0x06,0xc4,0x00,0x00,0xe1,0x02,0xf1,0x10,0x8a,0x00,0x1a,0xab,
 0x00,0xe0,0x03,0x01,0x0a,0x23,0x8c,0x00,0xe2,0x90,0x01,0x1e,0x9c,0x0f,0x7a,
 0x2c,0x44,0x00,0x04,0xf8,0xc1,0x01,0x20,0x04,0x84,0x50,0x48,0x00,0x0a,0xc4,
 0x31,0x00,0x40,0x02,0x1e,0x61,0x48,0x00,0x31,0x84,0x0a,0x00,0x40,0xfe,0x61,
 0x42,0x50,0x00,0x4d,0x84,0x06,0x00,0x40,0x00,0x86,0x03,0x20,0x00,0x83,0x84,
 0x02,0x00,0x40,0x00,0x18,0x00,0x00,0x00,0x80,0x98,0x03,0x00,0x20,0x00,0x20,
 0x00,0x00,0x00,0x80,0xe0,0x32,0x00,0x20,0x00,0x78,0x00,0x00,0x00,0x00,0x81,
 0x34,0x00,0x10,0xc0,0x47,0x00,0x00,0x00,0x00,0x81,0x18,0x00,0x0c,0x38,0x38,
 0x00,0x00,0x00,0x00,0x82,0xe0,0x80,0x03,0x06,0x04,0x18,0x00,0x00,0x00,0x84,
 0x00,0x7f,0x80,0x01,0x02,0x04,0x02,0xf0,0x07,0x9c,0x00,0x00,0x40,0x00,0x7e,
 0x02,0x04,0x0e,0x78,0xb4,0x01,0x00,0x30,0x00,0x81,0x3f,0x04,0xe1,0x87,0xd3,
 0x06,0x00,0xc8,0x00,0x0f,0xc2,0x85,0x10,0x00,0x8c,0x18,0x00,0x08,0x87,0x30,
 0x02,0x86,0x00,0x7c,0x90,0x28,0x00,0x10,0x78,0x40,0x04,0x04,0x81,0x93,0xa3,
 0x64,0x04,0x20,0x40,0x40,0x08,0x02,0x7e,0x10,0xa2,0x94,0x08,0xc0,0x80,0x21,
 0x00,0x01,0x20,0x20,0x94,0x0c,0x11,0x20,0x01,0x1e,0x00,0x60,0x60,0xc0,0x88,
 0x00,0x12,0x20,0x0e,0x00,0x00,0x80,0x80,0x01,0x93,0x00,0x22,0xc0,0x71,0x00,
 0x00,0x00,0x01,0x06,0xe4,0x03,0x24,0x7c,0x91,0x03,0x00,0x1c,0x81,0x03,0x88,
 0x1c,0x24,0x08,0x0e,0xfc,0x80,0x23,0x78,0x00,0xb8,0xe1,0x23,0xf0,0x70,0x10,
 0x7f,0x20,0x08,0x00,0xc4,0x0e,0x10,0x40,0x88,0x21,0x42,0x10,0x04,0x00,0x82,
 0xf0,0x0f,0x3f,0x10,0x2e,0x82,0x0c,0x02,0x00,0x82,0x00,0x10,0x01,0x3f,0x70,
 0x84,0x03,0x05,0x00,0x82,0x1c,0x60,0xe6,0x60,0xa0,0x7f,0xc0,0x18,0x00,0x81,
 0x62,0xa0,0x1b,0x80,0x20,0x00,0x38,0x20,0x00,0x81,0x8c,0x21,0x04,0x00,0xc1,
 0x03,0x07,0x40,0x00,0x81,0x10,0x22,0x02,0x00,0x02,0xfe,0x00,0x5e,0x00,0x81,
 0x21,0x14,0x02,0x00,0x02,0x04,0x80,0x61,0x00,0xf1,0x46,0x18,0x01,0x00,0x04,
 0x00,0x40,0x80,0x00,0x8a,0x58,0x08,0x01,0x00,0x04,0xc0,0x23,0x80,0x00,0xfa,
 0xa1,0x90,0x00,0x00,0x08,0x30,0x1c,0x00,0x01,0x84,0xc2,0x90,0x00,0x00,0x08,
 0x08,0x20,0x30,0x01,0x9e,0x84,0xa0,0x00,0x00,0x08,0x04,0x40,0x30,0x01,0xe1,
 0x07,0x40,0x00,0x00,0x10,0x04,0x40,0x00,0x01,0x87,0x00,0x00,0x00,0x18,0x10,
 0x02,0x80,0x80,0x1f,0x98,0x00,0x00,0x00,0x28,0x10,0x02,0x80,0x9e,0xe0,0xa0,
 0x00,0x00,0x00,0x48,0x08,0x62,0x80,0x61,0x00,0xc3,0x00,0x00,0x00,0x90,0x07,
 0x62,0x40,0x40,0x00,0xc4,0xe1,0x00,0x00,0x10,0x00,0x04,0x40,0x40,0x00,0xf4,
 0x1a,0x03,0x00,0x20,0x00,0x04,0xc0,0x41,0x00,0x8a,0x04,0x04,0x00,0x40,0x00,
 0x08,0x20,0x3e,0x80,0x85,0x02,0x08,0x00,0x80,0x01,0x30,0x18,0x00,0x70,0xb2,
 0x82,0x09,0x60,0x00,0x02,0xc0,0x07,0x00,0x4f,0xb2,0x82,0x09,0xa0,0x8d,0x01,
 0x00,0x00,0x80,0x48,0x8f,0x02,0x08,0x20,0x72,0x00,0x00,0x00,0x80,0xd7,0xb0,
 0x05,0x04,0x40,0x04,0x00,0x00,0x00,0x40,0x78,0xc0,0x18,0x02,0x40,0x18,0x00,
 0x00,0x00,0x38,0x40,0xc0,0xe0,0x01,0x40,0xe0,0x03,0x00,0xf8,0xc7,0x80,0xa1,
 0x00,0x00,0xc0,0x00,0x0c,0x00,0xa6,0x00,0x03,0x9e,0x00,0x00,0x03,0x63,0x08,
 0x00,0xa5,0x00,0x0c,0x80,0x00,0x00,0x04,0xac,0x07,0xc0,0x54,0x00,0x70,0x80,
 0x00,0x3c,0x04,0x47,0x00,0xa0,0x54,0x00,0x80,0x83,0x80,0x43,0xe0,0x80,0x03,
 0x20,0x55,0x00,0x00,0xfc,0x7f,0x5c,0x10,0x00,0x1c,0x10,0x52,0x00,0x00,0x80,
 0x24,0x23,0x10,0xfc,0xe1,0x11,0x50,0x00,0x00,0x80,0x93,0x1c,0x88,0x03,0x06,
 0x12,0xa0,0x00,0x00,0xc0,0xfc,0x03,0x44,0x00,0x18,0x22,0xe0,0x1b,0x00,0xa0,
 0x00,0x00,0x23,0x00,0x20,0x22,0x3e,0x24,0x00,0xa0,0x0f,0xe0,0x10,0x00,0x40,
 0x24,0xc1,0x28,0x00,0xc0,0xf2,0x1f,0x10,0x00,0x40,0xc4,0x04,0x11,0x00,0x80,
 0x41,0x00,0x10,0x00,0x80,0x08,0x0f,0x11,0x00,0x80,0x20,0x00,0x08,0x70,0x80,
 0x10,0x08,0x22,0x00,0xfe,0x13,0x07,0x08,0x88,0x81,0x60,0x10,0x20,0xe0,0x81,
 0xd4,0x05,0x08,0x30,0x86,0x90,0x1f,0x20,0x18,0x80,0x38,0x1a,0x08,0x40,0x88,
 0x08,0x30,0x20,0x06,0x80,0x08,0x17,0x88,0x87,0x50,0x04,0xd0,0x58,0x01,0x80,
 0x1f,0x08,0x50,0x18,0x61,0x04,0x10,0x87,0x00,0x80,0xe0,0x7c,0xd0,0x63,0x21,
 0x02,0x20,0xc0,0x07,0xf8,0x00,0x21,0x20,0x84,0x42,0x02,0x50,0x20,0x06,0x87,
 0x00,0x12,0xf0,0x08,0x43,0x02,0x88,0x21,0xc4,0x80,0x00,0xf2,0x0f,0x13,0x82,
 0x02,0x68,0x22,0x28,0x80,0x00,0x02,0x30,0x1c,0x00,0x01,0x18,0x24,0x18,0x80,
 0x00,0x02,0xc0,0x00,0x00,0x00,0x00,0xc4,0x08,0x80,0x00,0x01,0x00,0x01,0x00,
 0x00,0x00,0x04,0x0f,0x80,0x00,0x01,0xc0,0x03,0x00,0x00,0x00,0x08,0xc8,0x80,
 0x80,0x00,0x3e,0x02,0x00,0x00,0x00,0x08,0xd0,0x80,0x60,0xc0,0xc1,0x01,0x00,
 0x00,0x00,0x10,0x60,0x80,0x1c,0x30,0x20,0xc0,0x00,0x00,0x00,0x20,0x80,0x83,
 0x03,0x0c,0x10,0x20,0x10,0x80,0x3f,0xe0,0x00,0xfc,0x00,0x02,0xf0,0x13,0x20,
 0x70,0xc0,0xa3,0x01,0x80,0x80,0x01,0x08,0xfc,0x21,0x08,0x3f,0x9c,0x06,0x80,
 0x40,0x06,0x78,0x10,0x2e,0x84,0x00,0x60,0x18,0x80,0x40,0x38,0x84,0x11,0x30,
 0x04,0xe0,0x83,0x60,0x80,0x80,0xc0,0x03,0x22,0x20,0x08,0x9c,0x1c,0xa1,0x80,
 0x00,0x01,0x02,0x42,0x10,0xf0,0x83,0x10,0x91,0x91,0x00,0x06,0x0c,0x01,0x08,
 0x00,0x01,0xa1,0x50,0xa2,0x00,0x09,0xf0,0x00,0x00,0x03,0x03,0x46,0x30,0xc4,
 0x00,0x71,0x00,0x00,0x00,0x04,0x0c,0x98,0x00,0xc8,0x01,0x8e,0x03,0x00,0x00,
 0x08,0x30,0x20,0x03,0x88,0xe1,0x8b,0x1c,0x00,0xe0,0x08,0x1c,0x40,0x0c,0x90,
 0x41,0x70,0xe0,0x07,0x1c,0xc1,0x03,0xc0,0x71,0x90,0x81,0x87,0x83,0xf8,0x03,
 0x41,0x00,0x20,0x86,0x8f,0x00,0x42,0x0c,0x11,0x82,0x20,0x00,0x10,0x38,0xc0,
 0xf8,0x81,0x70,0x11,0x64,0x10,0x00,0x10,0xc0,0xbf,0x08,0xf8,0x81,0x23,0x1c,
 0x28,0x00,0x10,0x00,0xc0,0x33,0x07,0x03,0xfd,0x03,0xc6,0x00,0x08,0x70,0x80,
 0xdd,0x00,0x04,0x01,0xc0,0x01,0x01,0x08,0x88,0x81,0x21,0x00,0x08,0x1e,0x38,
 0x00,0x02,0x08,0x30,0x86,0x11,0x00,0x10,0xf0,0x07,0xf0,0x02,0x08,0x40,0x88,
 0x10,0x00,0x10,0x20,0x00,0x0c,0x03,0x88,0x87,0xd0,0x08,0x00,0x20,0x00,0x00,
 0x02,0x04,0x50,0x18,0xe1,0x08,0x00,0x20,0x00,0x1e,0x01,0x04,0xd0,0x63,0xa1,
 0x04,0x00,0x40,0x80,0xe1,0x00,0x08,0x20,0x84,0xc2,0x04,0x00,0x40,0x40,0x00,
 0x81,0x09,0xf0,0x08,0xc3,0x05,0x00,0x40,0x20,0x00,0x82,0x09,0x08,0x13,0x82,
 0x02,0x00,0x80,0x20,0x00,0x02,0x08,0x38,0x1c,0x80,0x00,0xc0,0x80,0x10,0x00,
 0x04,0xfc,0xc0,0x00,0x80,0x00,0x40,0x81,0x10,0x00,0xf4,0x04,0x07,0x01,0x80,
 0x00,0x40,0x42,0x10,0x03,0x0c,0x03,0x18,0x02,0x80,0x00,0x80,0x3c,0x10,0x03,
 0x02,0x02,0x20,0x02,0x80,0x00,0x80,0x00,0x20,0x00,0x02,0x02,0xa0,0x87,0x83,
 0x00,0x00,0x01,0x20,0x00,0x0e,0x02,0x50,0x68,0x8c,0x00,0x00,0x02,0x40,0x00,
 0xf1,0x01,0x2c,0x10,0x90,0x00,0x00,0x0c,0x80,0xc1,0x00,0x80,0x93,0x09,0xa0,
 0x00,0x03,0x10,0x00,0x3e,0x00,0x78,0x92,0x09,0xa6,0x00,0x6d,0x0c,0x00,0x00,
 0x00,0x44,0x7a,0x08,0xa6,0x00,0x91,0x03,0x00,0x00,0x00,0xbc,0x86,0x09,0xa0,
 0x00,0x22,0x00,0x00,0x00,0x00,0xc2,0x03,0x16,0x90,0x00,0xc2,0x00,0x00,0x00,
 0xc0,0x01,0x02,0x62,0x88,0x00,0x02,0x1f,0x00,0xc0,0x3f,0x06,0x0c,0x81,0x87,
 0x00,0x06,0x60,0x00,0x30,0x05,0x18,0xf0,0x00,0x80,0x18,0x18,0x43,0x00,0x28,
 0x05,0x60,0x00,0x00,0x80,0x20,0x60,0x3d,0x00,0xa6,0x02,0x80,0x03,0x00,0x80,
 0x21,0x38,0x02,0x00,0xa5,0x02,0x00,0x1c,0x00,0xf0,0x02,0x07,0x1c,0x00,0xa9,
 0x02,0x00,0xe0,0x03,0x8e,0x82,0x00,0xe0,0x80,0x90,0x02,0x00,0x00,0xfc,0xf1,
 0x81,0xe0,0x0f,0x8f,0x80,0x02,0x00,0x00,0x90,0x8c,0x40,0x1c,0x30,0x90,0x00,
 0x05,0x00,0x00,0x4e,0xf2,0x20,0x02,0xc0,0x10,0x01,0xdf,0x00,0x00,0xf1,0x8f,
 0x18,0x01,0x00,0x11,0xf1,0x21,0x01,0x00,0x01,0x80,0x87,0x00,0x00,0x22,0x09,
 0x46,0x01,0x00,0x3e,0x80,0x80,0x00,0x00,0x22,0x26,0x88,0x00,0x00,0xc8,0xff,
 0x80,0x00,0x00,0x44,0x78,0x88,0x00,0x00,0x04,0x81,0x40,0x80,0x03,0x84,0x40,
 0x10,0x01,0xf0,0x83,0x80,0x40,0x40,0x0c,0x04,0x83,0x00,0x01,0x0f,0x4c,0x9c,
 0x40,0x80,0x31,0x84,0xfc,0x00,0xc1,0x00,0x50,0x97,0x40,0x00,0x42,0x44,0x80,
 0x01,0x31,0x00,0xe0,0xe8,0x40,0x3c,0x84,0x22,0x80,0xc6,0x0a,0x00,0x20,0xdc,
 0x80,0xc2,0x08,0x23,0x80,0x38,0x04,0x00,0x7c,0xa0,0x83,0x1e,0x0b,0x11,0x00,
 0x01,0x3e,0xc0,0x83,0xf3,0x01,0x21,0x14,0x12,0x80,0x02,0x31,0x38,0x00,0x84,
 0x80,0x47,0x18,0x12,0x40,0x0c,0x21,0x06,0x00,0xc8,0x7f,0x98,0x10,0x14,0x40,
 0x13,0x41,0x01,0x00,0xc8,0x80,0xe1,0x00,0x08,0xc0,0x20,0xc1,0x00,0x00,0x88,
 0x00,0x06,0x00,0x00,0x00,0x20,0x46,0x00,0x00,0x88,0x00,0x08,0x00,0x00,0x00,
 0x20,0x78,0x00,0x00,0x84,0x00,0x1e,0x00,0x00,0x00,0x40,0x40,0x06,0x00,0x84,
 0xf0,0x11,0x00,0x00,0x00,0x40,0x80,0x06,0x00,0x82,0x0e,0x0e,0x00,0x00,0x00,
 0x80,0x00,0x03,0x80,0x81,0x01,0x01,0x06,0x00,0x00,0x00,0x01,0x1c,0x70,0xc0,
 0x80,0x00,0x81,0x00,0xfc,0x01,0x07,0xe0,0x0f,0xb0,0x80,0x9f,0x00,0x81,0x03,
 0x1e,0x0d,0x00,0x00,0x88,0x40,0xe0,0x0f,0x41,0xf8,0xe1,0x34,0x00,0x00,0x86,
 0xc0,0x83,0x70,0x21,0x04,0x00,0xc3,0x00,0x00,0x99,0x21,0x8c,0x80,0x21,0x00,
 0x1f,0x04,0x03,0x00,0xe1,0x1e,0x10,0x01,0x41,0xe0,0xe4,0x08,0x05,0x00,0x82,
 0x10,0x10,0x82,0x80,0x1f,0x84,0x88,0x8c,0x00,0x84,0x60,0x08,0x40,0x00,0x08,
 0x08,0x85,0x12,0x01,0x98,0x80,0x07,0x00,0x18,0x18,0x30,0x82,0x21,0x02,0xa4,
 0x03,0x00,0x00,0x20,0x60,0xc0,0x04,0x40,0x02,0xc4,0x1c,0x00,0x00,0x40,0x80,
 0x01,0x19,0x40,0x04,0xb8,0xe4,0x00,0x00,0x47,0xe0,0x00,0x62,0x80,0x84,0xaf,
 0x03,0x3f,0xe0,0x08,0x1e,0x00,0x8e,0x83,0x04,0xc1,0x1c,0xc4,0x1f,0x08,0x02,
 0x00,0x31,0x7c,0x04,0x9e,0x62,0x88,0x10,0x04,0x01,0x80,0xc0,0x01,0x02,0x88,
 0x84,0x8b,0x20,0x83,0x00,0x80,0x00,0xfe,0xe1,0x87,0x0f,0x1c,0xe1,0x40,0x01,
 0x80,0x00,0x00,0x22,0xe0,0x18,0xe8,0x1f,0x30,0x06,0x40,0x80,0x03,0xcc,0x9c,
 0x20,0x08,0x00,0x0e,0x08,0x40,0x40,0x0c,0x74,0x83,0x40,0xf0,0xc0,0x01,0x10,
 0x40,0x80,0x31,0x84,0x80,0x80,0x80,0x3f,0x80,0x17,0x40,0x00,0x42,0x44,0x80,
 0x80,0x00,0x01,0x60,0x18,0x40,0x3c,0x84,0x42,0x80,0x00,0x01,0x00,0x10,0x20,
 0x80,0xc2,0x08,0x23,0x80,0x00,0x01,0xf0,0x08,0x20,0x80,0x1e,0x0b,0x21,0x80,
 0x00,0x02,0x0c,0x07,0x40,0x00,0x21,0x14,0x12,0x80,0x00,0x02,0x02,0x08,0x4c,
 0x80,0x47,0x18,0x12,0x80,0x00,0x02,0x01,0x10,0x4c,0x40,0x98,0x10,0x14,0x80,
 0x00,0x04,0x01,0x10,0x40,0xc0,0xe1,0x00,0x08,0x80,0x06,0x84,0x00,0x20,0xe0,
 0x07,0x06,0x00,0x00,0x80,0x0a,0x84,0x00,0xa0,0x27,0x38,0x08,0x00,0x00,0x80,
 0x12,0x82,0x18,0x60,0x18,0xc0,0x10,0x00,0x00,0x80,0xe4,0x81,0x18,0x10,0x10,
 0x00,0x11,0x00,0x00,0x80,0x04,0x00,0x01,0x10,0x10,0x00,0x3d,0x1c,0x00,0x80,
 0x08,0x00,0x01,0x70,0x10,0x80,0x42,0x63,0x00,0x80,0x10,0x00,0x02,0x88,0x0f,
 0x60,0x81,0x80,0x00,0x80,0x60,0x00,0x0c,0x06,0x00,0x9c,0x4c,0x00,0x01,0x80,
 0x80,0x00,0xf0,0x01,0xc0,0x93,0x4c,0x30,0x01,0x8c,0x63,0x00,0x00,0x00,0x20,
 0xd2,0x43,0x30,0x01,0xb4,0x1c,0x00,0x00,0x00,0xe0,0x35,0x4c,0x00,0x01,0xc4,
 0x01,0x00,0x00,0x00,0x10,0x1e,0xb0,0x80,0x00,0x88,0x06,0x00,0x00,0x00,0x0e,
 0x10,0x10,0x43,0x00,0x88,0xf8,0x00,0x00,0xfe,0x31,0x60,0x08,0x3c,0x00,0x88,
 0x00,0x03,0x80,0x29,0xc0,0x80,0x07,0x00,0x00,0x98,0x18,0x02,0x40,0x29,0x00,
 0x03,0x00,0x00,0x60,0xe0,0xeb,0x01,0x30,0x15,0x00,0x1c,0x00,0x00,0x80,0x80,
 0x11,0x00,0x28,0x15,0x00,0xe0,0x00,0x80,0x87,0xe0,0xe0,0x00,0x48,0x15,0x00,
 0x00,0x1f,0x70,0x08,0x9c,0x00,0x07,0x84,0x14,0x00,0x00,0xe0,0x8f,0x0b,0x82,
 0x7f,0x78,0x04,0x14,0x00,0x00,0x80,0x64,0x04,0x82,0x80,0x81,0x04,0x28,0x00,
 0x00,0x70,0x92,0x03,0xf1,0x00,0x86,0x08,0xf8,0x06,0x00,0x88,0x7f,0x80,0x88,
 0x00,0x88,0x88,0x0f,0x09,0x00,0x08,0x00,0x60,0x84,0x00,0x10,0x49,0x30,0x0a,
 0x00,0xf0,0x01,0x1c,0x82,0x00,0x10,0x31,0x41,0x04,0x00,0x40,0xfe,0x03,0x82,
 0x00,0x20,0xc2,0x43,0x04,0x00,0x20,0x08,0x00,0x82,0x1c,0x20,0x04,0x82,0x08,
 0x80,0x1f,0x04,0x00,0x81,0x62,0x20,0x18,0x04,0x08,0x78,0x60,0xe2,0x00,0x81,
 0x8c,0x21,0xe4,0x07,0x08,0x06,0x80,0xba,0x00,0x81,0x10,0x22,0x02,0x0c,0x88,
 0x01,0x00,0x47,0x03,0x81,0x21,0x14,0x01,0x34,0x56,0x00,0x00,0xe1,0x02,0xf1,
 0x46,0x18,0x01,0xc4,0x21,0x00,0xe0,0x03,0x01,0x8a,0x58,0x88,0x00,0x08,0xf0,
 0x01,0x1e,0x9c,0x0f,0xfa,0xa1,0x90,0x00,0x14,0x88,0xc1,0x01,0x20,0x04,0x84,
 0xc2,0x90,0x00,0x62,0x08,0x31,0x00,0x40,0x02,0x9e,0x84,0xa0,0x00,0x9a,0x08,
 0x0a,0x00,0x40,0xfe,0xe1,0x07,0x40,0x00,0x06,0x09,0x06,0x00,0x40,0x00,0x86,
 0x00,0x00,0x00,0x00,0x31,0x02,0x00,0x40,0x00,0x98,0x00,0x00,0x00,0x00,0xc1,
 0x03,0x00,0x20,0x00,0xa0,0x00,0x00,0x00,0x00,0x02,0x32,0x00,0x20,0x00,0xf8,
 0x00,0x00,0x00,0x00,0x02,0x34,0x00,0x10,0xc0,0xc7,0x00,0x00,0x00,0x00,0x04,
 0x18,0x00,0x0c,0x38,0xb8,0x30,0x00,0x00,0x00,0x08,0xe0,0x80,0x03,0x06,0x84,
 0x08,0x04,0xe0,0x0f,0x38,0x00,0x7f,0x80,0x01,0x82,0x04,0x08,0x1c,0xf0,0x68,
 0x00,0x00,0x40,0x00,0xfe,0x7f,0x08,0xc2,0x0f,0xa7,0x01,0x00,0x30,0x00,0x81,
 0x84,0x0b,0x21,0x00,0x18,0x06,0x00,0xc8,0x00,0x8f,0x04,0x0c,0x01,0xf8,0x20,
 0x18,0x00,0x08,0x87,0xb0,0x08,0x08,0x02,0x27,0x47,0x28,0x00,0x10,0x78,0xc0,
 0x10,0x04,0xfc,0x20,0x44,0x64,0x04,0x20,0x40,0xc0,0x00,0x02,0x40,0x40,0x28,
 0x94,0x08,0xc0,0x80,0xa1,0x00,0xc0,0xc0,0x80,0x11,0x0c,0x11,0x20,0x01,0x9e,
 0x00,0x00,0x01,0x03,0x26,0x00,0x12,0x20,0x0e,0x80,0x00,0x00,0x02,0x0c,0xc8,
 0x00,0x22,0xc0,0x71,0x80,0x00,0x38,0x02,0x07,0x10,0x03,0x24,0x7c,0x91,0x83,
 0x01,0x47,0xf0,0x00,0x70,0x1c,0x24,0x08,0x0e,0xfc,0xfe,0x40,0x10,0x00,0x88,
 0xe1,0x23,0xf0,0x70,0x90,0x84,0x20,0x08,0x00,0x04,0x0e,0x10,0x40,0x88,0xa1,
 0x04,0x19,0x04,0x00,0x04,0xf0,0x0f,0x3f,0x10,0xae,0x08,0x07,0x0a,0x00,0x04,
 0x00,0x10,0x01,0x3f,0xf0,0xff,0x80,0x31,0x00,0x02,0x1c,0x60,0xe6,0x60,0xa0,
 0x00,0x70,0x40,0x00,0x02,0x62,0xa0,0x1b,0x80,0xa0,0x07,0x0e,0x80,0x00,0x02,
 0x8c,0x21,0x04,0x00,0xc1,0xfc,0x01,0xbc,0x00,0x02,0x10,0x22,0x02,0x00,0x82,
 0x08,0x00,0xc3,0x00,0xe2,0x21,0x14,0x02,0x00,0x82,0x00,0x80,0x00,0x01,0x14,
 0x46,0x18,0x01,0x00,0x84,0x80,0x47,0x00,0x01,0xf4,0x58,0x08,0x01,0x00,0x84,
 0x60,0x38,0x00,0x02,0x08,0xa1,0x90,0x00,0x00,0x88,0x10,0x40,0x60,0x02,0x3c,
 0xc2,0x90,0x00,0x00,0x88,0x08,0x80,0x60,0x02,0xc2,0x84,0xa0,0x00,0x00,0x88,
 0x08,0x80,0x00,0x02,0x0e,0x07,0x40,0x00,0x00,0x90,0x04,0x00,0x01,0x3f,0x30,
 0x00,0x00,0x00,0x18,0x90,0x04,0x00,0x3d,0xc1,0x41,0x00,0x00,0x00,0x28,0x90,
 0xc4,0x00,0xc3,0x00,0x86,0x00,0x00,0x00,0x48,0x88,0xc4,0x80,0x80,0x00,0x88,
 0x00,0x00,0x00,0x90,0x87,0x08,0x80,0x80,0x00,0xe8,0xe1,0x00,0x00,0x10,0x80,
 0x08,0x80,0x83,0x00,0x14,0x1a,0x03,0x00,0x20,0x80,0x10,0x40,0x7c,0x00,0x0b,
 0x04,0x04,0x00,0x40,0x80,0x60,0x30,0x00,0xe0,0x64,0x02,0x08,0x00,0x80,0x81,
 0x80,0x0f,0x00,0x9e,0x64,0x82,0x09,0x60,0x00,0x82,0x00,0x00,0x00,0x91,0x1e,
 0x82,0x09,0xa0,0x8d,0x81,0x00,0x00,0x00,0xaf,0x61,0x02,0x08,0x20,0x72,0x80,
 0x00,0x00,0x80,0xf0,0x80,0x05,0x04,0x40,0x04,0x80,0x00,0x00,0x70,0x80,0x80,
 0x18,0x02,0x40,0x18,0x80,0x00,0xf0,0x8f,0x01,0x43,0xe0,0x01,0x40,0xe0,0x83,
 0x00,0x4c,0x01,0x06,0x3c,0x00,0x00,0xc0,0x00,0x8c,0x00,0x4a,0x01,0x18,0x00,
 0x00,0x00,0x03,0x63,0x88,0x80,0xa9,0x00,0xe0,0x00,0x00,0x00,0x04,0xac,0x87,
 0x40,0xa9,0x00,0x00,0x07,0x00,0x3c,0x04,0x47,0x80,0x40,0xaa,0x00,0x00,0xf8,
 0x80,0x43,0xe0,0x80,0x83,0x20,0xa4,0x00,0x00,0x00,0x7f,0x5c,0x10,0x00,0x9c,
 0x23,0xa0,0x00,0x00,0x00,0x24,0x23,0x10,0xfc,0xe1,0x24,0x40,0x01,0x00,0x80,
 0x93,0x1c,0x88,0x03,0x86,0x44,0xc0,0x37,0x00,0x40,0xfc,0x03,0x44,0x00,0x98,
 0x44,0x7c,0x48,0x00,0x40,0x00,0x00,0x23,0x00,0xa0,0x48,0x82,0x51,0x00,0x80,
 0x0f,0xe0,0x10,0x00,0xc0,0x88,0x09,0x22,0x00,0x00,0xf2,0x1f,0x10,0x00,0xc0,
 0x11,0x1e,0x22,0x00,0x00,0x41,0x00,0x10,0x00,0x80,0x21,0x10,0x44,0x00,0xfc,
 0x20,0x00,0x08,0x70,0x80,0xc1,0x20,0x40,0xc0,0x03,0x13,0x07,0x08,0x88,0x81,
 0x21,0x3f,0x40,0x30,0x00,0xd4,0x05,0x08,0x30,0x86,0x11,0x60,0x40,0x0c,0x00,
 0x38,0x1a,0x08,0x40,0x88,0x08,0xa0,0xb1,0x02,0x00,0x08,0x17,0x88,0x87,0xd0,
 0x08,0x20,0x0e,0x01,0x00,0x1f,0x08,0x50,0x18,0xe1,0x04,0x40,0x80,0x0f,0xf0,
 0xe0,0x7c,0xd0,0x63,0xa1,0x04,0xa0,0x40,0x0c,0x0e,0x00,0x21,0x20,0x84,0xc2,
 0x04,0x10,0x43,0x88,0x01,0x00,0x12,0xf0,0x08,0xc3,0x05,0xd0,0x44,0x50,0x00,
 0x00,0xf2,0x0f,0x13,0x82,0x02,0x30,0x48,0x30,0x00,0x00,0x02,0x30,0x1c,0x80,
 0x00,0x00,0x88,0x11,0x00,0x00,0x02,0xc0,0x00,0x80,0x00,0x00,0x08,0x1e,0x00,
 0x00,0x01,0x00,0x01,0x80,0x00,0x00,0x10,0x90,0x01,0x00,0x01,0xc0,0x03,0x80,
 0x00,0x00,0x10,0xa0,0x01,0x80,0x00,0x3e,0x02,0x80,0x00,0x00,0x20,0xc0,0x00,
 0x60,0xc0,0xc1,0x01,0x80,0x00,0x00,0x40,0x00,0x07,0x1c,0x30,0x20,0xc0,0x80,
 0x00,0x7f,0xc0,0x01,0xf8,0x03,0x0c,0x10,0x20,0x90,0xe0,0x80,0x47,0x03,0x00,
 0x00,0x02,0xf0,0x13,0xa0,0x10,0x7e,0x38,0x0d,0x00,0x80,0x01,0x08,0xfc,0xa1,
 0x08,0x01,0xc0,0x30,0x00,0x40,0x06,0x78,0x10,0xae,0x08,0xc0,0x07,0xc1,0x00,
 0x40,0x38,0x84,0x11,0xb0,0x10,0x38,0x39,0x42,0x01,0x80,0xc0,0x03,0x22,0xa0,
 0xe0,0x07,0x21,0x22,0x23,0x00,0x01,0x02,0x42,0x90,0x00,0x02,0x42,0xa1,0x44,
 0x00,0x06,0x0c,0x01,0x88,0x06,0x06,0x8c,0x60,0x88,0x00,0x09,0xf0,0x00,0x80,
 0x08,0x18,0x30,0x01,0x90,0x00,0x71,0x00,0x00,0x80,0x10,0x60,0x40,0x06,0x10,
 0x01,0x8e,0x03,0x00,0x80,0x11,0x38,0x80,0x18,0x20,0xe1,0x8b,0x1c,0x00,0xe0,
 0x82,0x07,0x80,0xe3,0x20,0x41,0x70,0xe0,0x07,0x9c,0x82,0x00,0x40,0x0c,0x1f,
 0x81,0x87,0x83,0xf8,0x83,0x41,0x00,0x20,0x70,0x80,0x00,0x42,0x0c,0x11,0x82,
 0x20,0x00,0x20,0x80,0x7f,0xf8,0x81,0x70,0x11,0xe4,0x50,0x00,0x20,0x00,0x80,
 0x08,0xf8,0x81,0x23,0x9c,0x8c,0x01,0x10,0xe0,0x00,0x33,0x07,0x03,0xfd,0x83,
 0x03,0x02,0x10,0x10,0x03,0xdd,0x00,0x04,0x01,0xc0,0x00,0x04,0x10,0x60,0x0c,
 0x21,0x00,0x08,0x1e,0xb8,0xe0,0x05,0x10,0x80,0x10,0x11,0x00,0x10,0xf0,0x87,
 0x18,0x06,0x10,0x0f,0xa1,0x10,0x00,0x10,0x20,0x80,0x04,0x08,0xa0,0x30,0xc2,
 0x08,0x00,0x20,0x00,0x80,0x02,0x08,0xa0,0xc7,0x42,0x08,0x00,0x20,0x00,0x9e,
 0x01,0x10,0x40,0x08,0x85,0x04,0x00,0x40,0x80,0xe1,0x02,0x13,0xe0,0x11,0x86,
 0x04,0x00,0x40,0x40,0x80,0x04,0x13,0x10,0x26,0x04,0x05,0x00,0x40,0x20,0x80,
 0x04,0x10,0x70,0x38,0x00,0x02,0x00,0x80,0x20,0x80,0x08,0xf8,0x81,0x01,0x00,
 0x00,0xc0,0x80,0x10,0x80,0xe8,0x09,0x0e,0x02,0x00,0x00,0x40,0x81,0x10,0x80,
 0x18,0x06,0x30,0x04,0x00,0x00,0x40,0x42,0x10,0x83,0x04,0x04,0x40,0x04,0x00,
 0x00,0x80,0x3c,0x10,0x83,0x04,0x04,0x40,0x0f,0x07,0x00,0x80,0x00,0x20,0x80,
 0x1c,0x04,0xa0,0xd0,0x18,0x00,0x00,0x01,0x20,0x80,0xe2,0x03,0x58,0x20,0x20,
 0x00,0x00,0x02,0x40,0x80,0x01,0x00,0x27,0x13,0x40,0x00,0x00,0x0c,0x80,0xc1,
 0x00,0xf0,0x24,0x13,0x4c,0x00,0x03,0x10,0x00,0xbe,0x00,0x88,0xf4,0x10,0x4c,
 0x00,0x6d,0x0c,0x00,0x80,0x00,0x78,0x0d,0x13,0x40,0x00,0x91,0x03,0x00,0x80,
 0x00,0x84,0x07,0x2c,0x20,0x00,0x22,0x00,0x00,0x80,0x80,0x03,0x04,0xc4,0x10,
 0x00,0xc2,0x00,0x00,0x80,0x7f,0x0c,0x18,0x02,0x0f,0x00,0x02,0x1f,0x00,0xc0,
 0x0a,0x30,0xe0,0x01,0x00,0x00,0x06,0x60,0x00,0xb0,0x0a,0xc0,0x00,0x00,0x00,
 0x18,0x18,0x43,0x00,0xa8,0x05,0x00,0x07,0x00,0x00,0x20,0x60,0x3d,0x00,0xa6,
 0x05,0x00,0x38,0x00,0xe0,0x21,0x38,0x02,0x00,0xa5,0x05,0x00,0xc0,0x07,0x1c,
 0x02,0x07,0x1c,0x00,0xa9,0x05,0x00,0x00,0xf8,0xe3,0x82,0x00,0xe0,0x80,0x90,
 0x05,0x00,0x00,0x20,0x19,0x81,0xe0,0x0f,0x8f,0x80,0x0a,0x00,0x00,0x9c,0xe4,
 0x40,0x1c,0x30,0x90,0x80,0xbe,0x01,0x00,0xe2,0x1f,0x20,0x02,0xc0,0x10,0x81,
 0x43,0x02,0x00,0x02,0x00,0x18,0x01,0x00,0x11,0xf1,0x8c,0x02,0x00,0x7c,0x00,
 0x87,0x00,0x00,0x22,0x89,0x10,0x01,0x00,0x90,0xff,0x80,0x00,0x00,0x22,0xa6,
 0x10,0x01,0x00,0x08,0x02,0x80,0x00,0x00,0x44,0xf8,0x20,0x02,0xe0,0x07,0x01,
 0x40,0x80,0x03,0x84,0xc0,0x01,0x02,0x1e,0x98,0x38,0x40,0x40,0x0c,0x04,0x83,
 0x01,0x82,0x01,0xa0,0x2e,0x40,0x80,0x31,0x84,0xfc,0x03,0x62,0x00,0xc0,0xd1,
 0x40,0x00,0x42,0x44,0x80,0x8d,0x15,0x00,0x40,0xb8,0x40,0x3c,0x84,0x22,0x80,
 0x71,0x08,0x00,0xf8,0x40,0x80,0xc2,0x08,0x23,0x80,0x02,0x7c,0x80,0x07,0xe7,
 0x83,0x1e,0x0b,0x11,0x80,0x05,0x62,0x70,0x00,0x08,0x01,0x21,0x14,0x12,0x80,
 0x18,0x42,0x0c,0x00,0x90,0x80,0x47,0x18,0x12,0xc0,0x26,0x82,0x02,0x00,0x90,
 0x7f,0x98,0x10,0x14,0xc0,0x41,0x82,0x01,0x00,0x10,0x80,0xe1,0x00,0x08,0xc0
 };
