#define moor_star2_width 50
#define moor_star2_height 50
static unsigned char moor_star2_bits[] = {
   0x41, 0x16, 0x00, 0x00, 0x00, 0x09, 0x02, 0x80, 0x0c, 0x00, 0x00, 0x80,
   0x14, 0x00, 0x00, 0x09, 0x00, 0x00, 0x40, 0x2a, 0x00, 0x00, 0x12, 0xfc,
   0xff, 0x20, 0x15, 0x00, 0x00, 0x24, 0x02, 0x00, 0x91, 0x0a, 0x00, 0x00,
   0x48, 0xf2, 0x3f, 0x49, 0x05, 0x00, 0x01, 0x90, 0xaa, 0x6a, 0xa5, 0x02,
   0x02, 0x02, 0x20, 0x5b, 0x55, 0x53, 0x01, 0x01, 0x04, 0x40, 0x0a, 0x40,
   0xa9, 0x80, 0x00, 0x09, 0x80, 0x0c, 0x40, 0x55, 0x40, 0x02, 0x13, 0x00,
   0x09, 0x40, 0x2b, 0x20, 0x01, 0x26, 0x00, 0x12, 0x60, 0x15, 0x90, 0x02,
   0x49, 0x00, 0x26, 0x50, 0x0b, 0x48, 0x01, 0x90, 0x00, 0x4a, 0x48, 0x05,
   0xa4, 0x02, 0x20, 0x01, 0x9a, 0x64, 0x03, 0x52, 0x01, 0x40, 0x02, 0x2a,
   0x53, 0x01, 0xa9, 0x00, 0x80, 0x04, 0x4a, 0x68, 0x81, 0x54, 0x00, 0xf0,
   0xff, 0x8b, 0x54, 0x7f, 0x3e, 0x00, 0x08, 0x00, 0x08, 0x6b, 0x20, 0x41,
   0x00, 0xc8, 0xff, 0x0f, 0xd0, 0x9f, 0x4f, 0x00, 0xa8, 0x4a, 0x05, 0x80,
   0x4a, 0x55, 0x00, 0x68, 0x95, 0x02, 0x00, 0xa5, 0x5a, 0x00, 0xa8, 0x2a,
   0x05, 0x80, 0x52, 0x55, 0x00, 0x28, 0x40, 0x02, 0x00, 0xa9, 0x50, 0x00,
   0x28, 0x80, 0x04, 0x83, 0x54, 0x50, 0x00, 0x28, 0x80, 0x04, 0x83, 0x2c,
   0x50, 0x00, 0x28, 0x40, 0x02, 0x00, 0x19, 0x50, 0x00, 0x28, 0x20, 0x05,
   0x00, 0x12, 0x50, 0x00, 0x28, 0x90, 0x02, 0x00, 0x24, 0x50, 0x00, 0x28,
   0x48, 0x05, 0x00, 0x48, 0x50, 0x00, 0xc8, 0xe7, 0x0f, 0xc0, 0xff, 0x4f,
   0x00, 0x08, 0x12, 0x08, 0x43, 0x00, 0x40, 0x00, 0xf0, 0xf9, 0x8b, 0x44,
   0xff, 0x3f, 0x00, 0xa0, 0x54, 0x4b, 0x48, 0xab, 0x14, 0x00, 0x50, 0xaa,
   0x2a, 0x53, 0x55, 0x29, 0x00, 0x20, 0x55, 0x9b, 0x66, 0xab, 0x12, 0x00,
   0x90, 0x0a, 0x4a, 0x4d, 0x01, 0x24, 0x00, 0x48, 0x05, 0xaa, 0x92, 0x01,
   0x48, 0x00, 0xa4, 0x02, 0x5a, 0x21, 0x01, 0x90, 0x00, 0x52, 0x01, 0xab,
   0x40, 0x02, 0x20, 0x01, 0xa9, 0x80, 0x5a, 0xc0, 0x04, 0x40, 0x02, 0x54,
   0x40, 0x2a, 0x40, 0x09, 0x80, 0x00, 0x2a, 0x20, 0x1b, 0x40, 0x13, 0x00,
   0x01, 0x15, 0x90, 0x0a, 0x40, 0x25, 0x00, 0x02, 0x0a, 0x48, 0xf3, 0x3f,
   0x49, 0x00, 0x00, 0x04, 0xa4, 0x02, 0x00, 0x91, 0x00, 0x00, 0x00, 0x52,
   0xfd, 0xff, 0x20, 0x01, 0x00, 0x00, 0xa9, 0xa8, 0xaa, 0x40, 0x02, 0x00,
   0x80, 0x54, 0x50, 0x55, 0x80, 0x04, 0x00, 0x41, 0x2a, 0x00, 0x00, 0x00,
   0x09, 0x02};
