#define plasma_maze_width 128
#define plasma_maze_height 128
static char plasma_maze_bits[] = {
 0xfd,0xff,0xfd,0xef,0xee,0x6f,0xfd,0xff,0xed,0xd6,0xff,0xff,0xff,0xee,0xff,
 0x7f,0x6e,0x77,0xaf,0xd6,0xdd,0x6a,0x55,0x7f,0x57,0xad,0x6a,0xad,0xaa,0xd6,
 0x6d,0xeb,0xe9,0xfa,0x56,0x6d,0xb7,0xed,0xaa,0xea,0x6c,0x55,0xc5,0xae,0x52,
 0x6d,0xdb,0x5e,0x5a,0xdf,0x56,0xed,0x6e,0x6b,0xf5,0x7f,0x57,0xad,0xda,0x56,
 0x55,0xdd,0xbd,0xeb,0xef,0xfe,0xd6,0xd6,0xfe,0xef,0xff,0xef,0xfc,0x7f,0x55,
 0xed,0xd7,0xff,0xfe,0xde,0x5d,0xbd,0x6d,0x6d,0xd5,0xda,0x56,0x5b,0x6f,0xd5,
 0xd6,0x96,0x56,0xb5,0xf7,0xf7,0xf6,0x6e,0x55,0xd5,0x7a,0x6b,0xed,0x6f,0x5c,
 0xd5,0x6c,0x55,0xad,0xd6,0x6e,0x6d,0x6d,0xbf,0x6e,0x6d,0xe5,0xda,0xf5,0xda,
 0xb5,0x6a,0xd7,0xae,0xd6,0xba,0xdd,0xdf,0xde,0xfe,0xe6,0xd6,0xde,0x7e,0xdf,
 0xff,0xef,0xd7,0x6f,0xfd,0xfe,0xff,0xef,0x76,0xd5,0xda,0x6a,0x55,0x55,0x6d,
 0xf5,0xaf,0xae,0x56,0xd5,0xd6,0x5a,0x57,0xfb,0xad,0x6e,0x7f,0xd5,0xea,0x56,
 0xad,0xfe,0x5e,0x75,0xad,0xea,0xfd,0xb7,0xee,0x56,0x6f,0xd6,0xd6,0x6a,0x77,
 0xad,0x56,0xd7,0xb7,0xae,0x57,0x55,0x6b,0xed,0x5d,0xed,0x56,0xef,0xfd,0xd7,
 0xff,0xfe,0xef,0xff,0xfe,0xd6,0xfe,0xff,0xde,0x7f,0xff,0xfe,0xfe,0x6d,0xaf,
 0xf6,0x6d,0x57,0xc9,0xf6,0xdb,0xe4,0xaa,0xec,0xff,0xff,0x6a,0x55,0xa9,0xd7,
 0x7e,0x4d,0xdb,0xfd,0x6a,0xdd,0xee,0x5d,0x5d,0x77,0xed,0xd6,0xdb,0xea,0xaa,
 0xd6,0xaf,0xf6,0x76,0xd7,0xea,0xee,0x7b,0xd7,0xb2,0xec,0xff,0xff,0xd6,0x4a,
 0xb5,0xed,0xff,0xcd,0xdd,0xee,0x7d,0xff,0x6f,0xed,0xff,0x6d,0xdf,0xff,0xef,
 0xf7,0xff,0xd6,0xbe,0x56,0xf7,0x56,0xcf,0xea,0xdb,0xd6,0xaa,0xd6,0xfd,0xbf,
 0x6d,0x55,0x6f,0xbd,0x77,0xed,0xdc,0xee,0x55,0x7d,0xf7,0x7d,0x55,0xf7,0xfe,
 0xed,0x6f,0xed,0xd6,0xd6,0xde,0x57,0x77,0x75,0xaf,0xd6,0x5d,0xef,0xab,0x6e,
 0xef,0x7f,0x6d,0x55,0x55,0xfd,0xff,0xef,0xfc,0xef,0xfe,0xff,0xff,0x7e,0xfd,
 0xd7,0xff,0xff,0x6f,0xfd,0xd6,0x7f,0xb7,0x56,0x55,0xd5,0x55,0xed,0xf6,0xf5,
 0xaf,0x6a,0x7d,0xef,0x57,0x5f,0xf5,0xaa,0xfd,0xfd,0xaa,0x76,0xab,0xbe,0xaf,
 0x6e,0x5d,0xcd,0xef,0x7f,0x2d,0xd5,0x54,0xf7,0xdf,0xef,0x56,0xed,0x4a,0xf7,
 0x7d,0xfb,0x57,0x6b,0xfd,0xdf,0xaf,0x6e,0xed,0xff,0xff,0xde,0xff,0xdf,0xff,
 0xde,0xff,0xdf,0xfe,0xef,0xfe,0xff,0xfe,0xdf,0xf7,0xbd,0xf7,0xff,0xd5,0xea,
 0x55,0xed,0xd7,0xff,0x5d,0xad,0x6e,0xfb,0xad,0x56,0xed,0xf7,0xbe,0xb6,0x77,
 0x75,0xab,0xfe,0xfe,0x76,0xb7,0x56,0xff,0x6f,0x57,0xad,0xda,0xdd,0xdb,0xff,
 0x6a,0xd5,0x56,0xf5,0xdb,0xdf,0xad,0x5c,0xd5,0xfe,0xae,0xbe,0x76,0xff,0xff,
 0xff,0xdf,0xff,0xfe,0x7f,0xff,0xee,0xde,0xee,0xff,0xed,0xdd,0xd4,0xff,0xed,
 0xfe,0xed,0x6f,0xd5,0xd5,0xd6,0xf7,0xff,0x6b,0x2d,0x6d,0x5f,0x6b,0xeb,0xaa,
 0xff,0x77,0xbf,0xde,0x6a,0x6d,0x6d,0x5d,0x55,0xd5,0xae,0xee,0xf6,0xf6,0x74,
 0x75,0xed,0xde,0xeb,0xb7,0xd2,0xdb,0xb2,0xff,0xff,0x76,0x57,0xed,0xdd,0x6d,
 0xcb,0xca,0xff,0xf7,0xfd,0xfd,0xef,0x6f,0xfd,0xf7,0xef,0xff,0x7e,0x57,0xf7,
 0xff,0xff,0xff,0x5f,0xfd,0xff,0x5e,0xd5,0xb6,0xae,0x6e,0xdf,0xca,0xd6,0xec,
 0xae,0xb6,0xd6,0x6a,0xfd,0xdf,0xde,0x6b,0xbd,0xdd,0xa6,0xde,0x77,0xf5,0x66,
 0xd7,0xd6,0xda,0x56,0xab,0xaf,0xf6,0xef,0x5e,0x55,0xb7,0x5d,0xf5,0xee,0x6a,
 0x6d,0x6d,0xad,0xad,0xad,0xaa,0xfd,0xdf,0xf6,0xfd,0xff,0xee,0x6f,0xfd,0x5f,
 0x6d,0xd5,0xfe,0xfe,0x7f,0xd7,0xff,0xff,0x75,0x6d,0x55,0xbd,0xd5,0xd6,0x6a,
 0x77,0x5d,0x6d,0x29,0x55,0xed,0x6c,0x57,0x6d,0xd7,0xd5,0xea,0x56,0x6d,0x7d,
 0xd5,0x5d,0xad,0xd6,0x4a,0xad,0xae,0xd7,0xac,0xdf,0x6a,0x6a,0xd5,0x6a,0xd7,
 0xd6,0xea,0x6e,0x2d,0x6d,0xb5,0x96,0x56,0x6e,0xcb,0xf7,0xfe,0xd7,0xf7,0xfd,
 0x6f,0xed,0xd7,0xff,0xff,0xd7,0xff,0x6f,0xed,0xd7,0xfe,0x5f,0xad,0x6f,0x6f,
 0xaf,0x52,0xad,0x6d,0xbd,0xae,0xaa,0xb6,0xdb,0xd6,0x5a,0xad,0xbd,0xd5,0xd6,
 0x56,0x54,0x55,0x75,0xd7,0xb7,0xb6,0xaa,0x6e,0xf5,0xd6,0xd6,0xd6,0x6f,0xad,
 0xae,0xd4,0xad,0xaa,0xce,0x6e,0x7d,0xad,0x54,0x5d,0xed,0x56,0xd5,0xae,0xfd,
 0xef,0xfe,0x6f,0xfd,0x7f,0xfd,0xd5,0xff,0xf6,0xd7,0xd6,0xd7,0xef,0xfe,0xd7,
 0x5f,0x75,0x55,0x6b,0x57,0x55,0x5d,0xaf,0x76,0xd5,0xf6,0xd5,0x6a,0x6d,0xa9,
 0xf5,0xed,0x6a,0xd6,0xda,0x96,0xae,0xf7,0x56,0xdd,0xea,0x6d,0x55,0xc5,0xda,
 0x6a,0x65,0xbf,0xda,0xae,0xed,0xae,0x74,0xad,0xad,0xf6,0x55,0xdb,0xea,0x5a,
 0x75,0x55,0xd5,0xff,0x7f,0xf5,0xff,0x56,0xff,0xff,0xff,0xff,0xff,0xfe,0x7f,
 0xfd,0xfe,0xdf,0xff,0xad,0x6a,0xad,0xfb,0xee,0xd4,0x56,0xab,0x6e,0x57,0x55,
 0x55,0x55,0xa9,0xb7,0xee,0x7f,0x55,0xdd,0x6e,0x57,0xad,0xd5,0xaa,0xfe,0xae,
 0x2c,0x55,0xd5,0xaa,0x4c,0xad,0xd5,0x6a,0xed,0xfb,0xed,0x7a,0xf5,0xaa,0xd5,
 0xb7,0x56,0xa9,0x6a,0x55,0x55,0x77,0xff,0xff,0xef,0xdf,0xde,0xff,0x7f,0xd5,
 0xff,0xee,0xff,0xff,0xff,0x7f,0xfd,0xde,0x7f,0xab,0xad,0xfe,0x77,0xa9,0xaa,
 0x6e,0xfd,0x77,0x55,0x55,0xd5,0xaa,0xde,0xf6,0xef,0xaa,0xf6,0xb7,0xed,0xea,
 0x56,0xd5,0xae,0xdd,0xad,0x2a,0x69,0x49,0x6d,0xaf,0xbd,0xab,0xad,0xfe,0x5f,
 0x55,0xab,0xd6,0xfd,0x77,0xab,0x4a,0x45,0xd5,0xde,0xfd,0xff,0x5e,0xff,0xff,
 0xef,0xff,0x7f,0x6d,0xd7,0xff,0xfe,0x7e,0x7d,0x7d,0xf7,0xff,0xff,0xed,0x56,
 0x6d,0x7b,0xd5,0x56,0xd6,0xfe,0xfe,0x5d,0xd5,0xd6,0xd6,0xfe,0xde,0xab,0x6f,
 0xd5,0xfe,0xef,0xd6,0xae,0xf6,0xd6,0xdb,0xae,0xd6,0x6d,0xad,0xef,0xfb,0xff,
 0xde,0xae,0xdb,0x5d,0x55,0xb5,0xcc,0xee,0xfe,0x6f,0x6d,0xdf,0xd6,0x7e,0xef,
 0xff,0x77,0xfd,0xff,0xff,0xef,0xfe,0x77,0xfd,0xef,0xde,0xd7,0xf7,0xed,0xf7,
 0xfd,0xdd,0x6f,0x57,0x7d,0xff,0x5b,0xad,0xce,0xd7,0xfb,0xf7,0xea,0x6e,0x57,
 0xdf,0xaf,0xef,0x5a,0xaa,0xd6,0xad,0xf6,0x76,0x75,0x6e,0xdf,0x6e,0xb5,0xd5,
 0xd6,0xfe,0xf6,0x7d,0xd7,0x56,0xfd,0xff,0x6d,0xad,0xcd,0xdd,0xfa,0xdf,0x6a,
 0xed,0x55,0xf7,0x5d,0xef,0xff,0xff,0xff,0xef,0xdf,0xd6,0x76,0xff,0xfd,0xf6,
 0xff,0x56,0xff,0xdf,0xff,0xbd,0x6d,0xad,0x56,0xbf,0x77,0x6d,0x47,0xb5,0xee,
 0x5f,0x6d,0x65,0xd5,0xfe,0xb7,0x77,0xab,0xae,0xfe,0xf6,0xee,0xd6,0x5e,0xad,
 0x5f,0xef,0xd6,0x6a,0x6b,0x77,0xed,0xad,0x55,0xad,0x56,0xdf,0xdf,0x6d,0xad,
 0x6e,0xf5,0xbe,0xed,0xca,0xee,0xee,0x5b,0xff,0xff,0x7e,0xed,0xed,0x76,0x7f,
 0xd7,0xff,0xef,0x7f,0xd5,0xff,0x57,0xfd,0xfe,0xdb,0xaa,0xd5,0xda,0x7e,0xef,
 0xea,0x7c,0x55,0x5f,0xef,0x6e,0x55,0xad,0xf6,0xff,0x76,0x75,0x6b,0x75,0xd7,
 0xfd,0x57,0xd5,0xaa,0xb6,0xff,0xd6,0xaa,0xae,0x6e,0xab,0x55,0xad,0xd4,0xea,
 0xee,0x6e,0xfd,0x6a,0xd5,0xd6,0x76,0xad,0x95,0xb6,0xde,0xdf,0xef,0xff,0xff,
 0x7f,0xfd,0xf7,0xd7,0xff,0x7c,0xfd,0xdf,0xff,0xfe,0x7e,0xf5,0xf7,0xd5,0xaa,
 0x56,0x55,0x5b,0xdd,0x6f,0xb5,0xad,0xfb,0xee,0xd4,0xd5,0xda,0xee,0x5e,0xad,
 0xaa,0xae,0xaa,0xaa,0xee,0xda,0x6a,0x55,0xed,0x7b,0x6b,0xeb,0x56,0xd5,0xff,
 0x6d,0x55,0x6d,0xab,0x6a,0xff,0xed,0xd2,0xae,0x76,0xdf,0xd2,0xde,0xed,0xbe,
 0x56,0xfe,0xff,0xd7,0xff,0xff,0x57,0xff,0xfe,0xd7,0xdf,0xf7,0xef,0x7f,0x7f,
 0xfd,0xff,0xd5,0xda,0xfe,0x6a,0x55,0xed,0xdd,0xd6,0xea,0xff,0xef,0x56,0xd5,
 0x54,0xd5,0x7e,0x7a,0xf5,0x6d,0xcb,0xa4,0xfd,0xf6,0x76,0xd5,0xf6,0x5a,0xad,
 0xea,0x52,0xf5,0xed,0xd5,0x6e,0xdf,0x6a,0x55,0xeb,0x6d,0xcd,0xf5,0xde,0xd5,
 0xa6,0x6a,0x55,0x6d,0x7f,0xef,0xf7,0xed,0xd6,0xff,0xfe,0xdf,0x75,0xfd,0x7f,
 0xff,0xfc,0xd7,0xff,0xff,0xee,0x96,0xda,0x7f,0xad,0x6a,0xad,0x75,0xaf,0xae,
 0xd6,0x56,0xab,0x6e,0x55,0xdb,0x5f,0xbd,0xf6,0xd6,0x57,0xd5,0x7e,0xef,0xd4,
 0xf6,0xff,0xd6,0x54,0xd5,0xb6,0xb6,0xf6,0x56,0xed,0x7d,0x55,0xea,0xad,0xdd,
 0xad,0xac,0x55,0x6d,0x95,0xee,0xea,0x6d,0xbf,0x7d,0x7d,0xff,0xfe,0x57,0xf7,
 0x77,0xfd,0xff,0xff,0xd6,0xd6,0xd6,0xfd,0xff,0xef,0xd5,0xee,0xae,0x56,0xed,
 0xee,0xed,0xba,0xfe,0x5b,0x55,0x6d,0x6d,0xbf,0x6e,0x7b,0xeb,0x54,0x57,0xad,
 0xde,0xdd,0x5e,0x55,0xd5,0x56,0x6e,0xd5,0xde,0xee,0xdd,0xfe,0xd5,0xaf,0xae,
 0x56,0x75,0xf7,0xd5,0x5a,0xed,0xad,0x56,0xd7,0xb6,0x5f,0xb7,0xd5,0x7f,0xd5,
 0xd7,0xef,0xef,0xde,0xef,0xff,0xff,0xff,0xff,0xef,0xff,0xff,0x6e,0xff,0xaf,
 0xae,0xea,0x6a,0xf7,0xed,0x6e,0xad,0xea,0x56,0x55,0x55,0xed,0xf5,0xd5,0xfa,
 0x5d,0x5d,0x69,0xd5,0x5a,0xbf,0x6d,0xaf,0xfe,0x5d,0xa9,0x56,0xbb,0x6e,0xed,
 0xd6,0x77,0x75,0x4b,0xf5,0xf7,0x6d,0xd7,0x56,0xd5,0x57,0x95,0xac,0xd6,0xdb,
 0x6a,0xb5,0xff,0xff,0xff,0x6e,0xdd,0xff,0xd6,0xd5,0xff,0x7e,0x7d,0xff,0xfd,
 0xff,0xfe,0xff,0xfd,0x96,0x76,0xd5,0xff,0xdf,0xb6,0xae,0xfb,0xdf,0xd6,0x54,
 0xbb,0x56,0x55,0x55,0xef,0xad,0xca,0x7e,0xed,0xea,0xd6,0x56,0xad,0xb5,0x6d,
 0xf5,0xd6,0xed,0x4a,0xa9,0x7e,0xab,0x7e,0xd5,0xff,0xdf,0xac,0x6c,0xfb,0x5f,
 0xd7,0xca,0xaa,0x56,0x55,0x55,0xf5,0xdd,0xd7,0xee,0x7e,0x75,0xff,0xef,0xff,
 0xff,0xef,0x77,0xfd,0xee,0xff,0xff,0xdd,0xef,0x2c,0xfd,0xf7,0x6f,0xaa,0x5a,
 0xef,0xd6,0xb6,0xce,0x56,0x55,0xed,0x6a,0x6f,0xdf,0xde,0xd6,0x5e,0xd7,0x55,
 0xeb,0xfa,0xff,0x6d,0x75,0xe9,0xee,0xdb,0xd5,0xfe,0x75,0x35,0xfd,0xfb,0x6e,
 0xab,0xb6,0xd7,0x5a,0x5f,0xcd,0x6a,0x2d,0x75,0x6b,0xfd,0xdf,0xfe,0xef,0xff,
 0xd7,0xff,0xff,0xff,0xff,0xfd,0xf6,0xff,0xff,0xef,0xd6,0xdb,0xef,0x5a,0x6d,
 0xef,0x6a,0xd5,0xdd,0x56,0xff,0xae,0x56,0xad,0x54,0xdd,0xd6,0x7e,0xdd,0xaa,
 0xde,0x7d,0xab,0x6a,0x77,0xff,0xed,0x57,0xad,0xaf,0xae,0x76,0x6d,0xeb,0x77,
 0xb5,0xf6,0xeb,0x6a,0xb5,0xdd,0x6d,0x7f,0x5d,0xb6,0x56,0x55,0xed,0xd6,0xff,
 0xee,0x7e,0x6d,0xdf,0xdc,0xff,0xff,0xde,0xef,0xd7,0x7e,0xd5,0x6f,0xde,0xef,
 0xbf,0x5b,0xe9,0xd6,0x76,0xb7,0x7a,0xbd,0xf7,0x7e,0x6d,0xeb,0xee,0xca,0xb6,
 0xfe,0xed,0xf6,0x6a,0x6d,0x6f,0xac,0xd6,0xef,0xde,0xd7,0xd6,0x56,0x6d,0x7b,
 0x4d,0xd5,0xb7,0x6d,0xd5,0xd6,0xd6,0xaf,0xfa,0xbe,0x77,0xff,0xed,0xe9,0xde,
 0xd5,0xae,0xfe,0xff,0x7f,0xf5,0xef,0x7f,0xfe,0xef,0xff,0xdf,0x6f,0xd5,0x7f,
 0xf7,0x6f,0xfd,0xff,0x6d,0xad,0xce,0x56,0xd5,0x4d,0xd5,0xd6,0xfe,0xdb,0x7e,
 0xd5,0xdd,0x6e,0x57,0x5d,0x5b,0xd7,0x56,0xd5,0x6a,0x57,0xed,0xbd,0xed,0x76,
 0xd5,0xfa,0xfe,0x6d,0xad,0xff,0xaa,0xbe,0x56,0x6f,0xd5,0xae,0x5a,0x6b,0xff,
 0x6b,0x6d,0xd5,0xaf,0x6f,0xd7,0xae,0xff,0xfd,0xff,0xd6,0xd6,0xd5,0xff,0xfe,
 0x6f,0x6f,0x6f,0xff,0xfe,0xfe,0xec,0xdf,0x6d,0xab,0x55,0x7d,0x6d,0xaf,0xd2,
 0xd6,0xfd,0xd6,0x56,0xd5,0xef,0x55,0xd7,0xf7,0xdb,0xde,0xea,0xd6,0xae,0x56,
 0x55,0x6d,0xf7,0xed,0x56,0xff,0x7d,0xef,0xf6,0xde,0xf6,0xb5,0x6d,0xed,0xfd,
 0xae,0xea,0xd6,0x5d,0xd7,0xd6,0x76,0xdf,0x55,0xed,0x7b,0xed,0xff,0x6f,0x6d,
 0xff,0xff,0x57,0xed,0xfe,0xd6,0xfc,0xef,0xff,0xef,0x57,0xff,0x5f,0xf7,0xd6,
 0xca,0x96,0x6a,0xed,0xd6,0x7d,0x75,0xaf,0xbd,0xed,0x77,0xd6,0xde,0xf7,0xdd,
 0x7d,0xd5,0x6c,0xad,0xdb,0x6c,0xaf,0xee,0x54,0x6f,0x77,0x6d,0xed,0xfd,0xbd,
 0x77,0xcf,0x6a,0x95,0xda,0x76,0xd7,0x7e,0x6d,0x6d,0xdd,0xdd,0x6e,0x57,0xd7,
 0xff,0xff,0xfd,0xd7,0xee,0xff,0xef,0xec,0xff,0x5f,0xed,0xfe,0xff,0xd7,0xec,
 0xfe,0xff,0x6e,0x57,0x6d,0x55,0xd5,0x5e,0x57,0xad,0xea,0x6a,0x55,0x77,0x6d,
 0x5f,0xa9,0xaa,0xff,0xad,0xef,0x6e,0x55,0xb7,0xd6,0x57,0x6d,0xd5,0x6a,0xed,
 0xda,0xf4,0xaa,0x75,0x6f,0x5f,0x6d,0xd5,0xaa,0x6e,0xad,0x5d,0x6b,0x55,0x55,
 0xd7,0x76,0xcd,0x56,0xff,0xfe,0xfd,0xfe,0x7e,0xfd,0xfd,0xf7,0x7f,0xfd,0xff,
 0xff,0xdc,0xff,0xd6,0xff,0xad,0x6d,0xd7,0x6a,0x6f,0x6d,0x56,0xed,0xd7,0xaf,
 0xaa,0x2a,0xb7,0x55,0xad,0xaa,0x56,0xff,0x7a,0xdb,0x56,0xd7,0xae,0x5a,0x6d,
 0x55,0x52,0x55,0x55,0xad,0xaf,0x6a,0xd7,0xee,0xd5,0xd6,0x6e,0x6d,0x95,0xfa,
 0xd7,0x4e,0x95,0xaa,0x56,0x55,0xb5,0xaa};
