#define scatter_width 50
#define scatter_height 50
static char scatter_bits[] = {
   0x05, 0x81, 0x80, 0x15, 0x02, 0x42, 0x02, 0x45, 0x28, 0x84, 0x48, 0x1a,
   0x46, 0x00, 0x84, 0x84, 0xcd, 0xb3, 0x60, 0x46, 0x00, 0x00, 0x20, 0x46,
   0x41, 0x09, 0xb8, 0x01, 0xbc, 0x18, 0x62, 0xd0, 0x10, 0x17, 0x01, 0xf0,
   0x54, 0x90, 0x0d, 0x91, 0x4c, 0x01, 0x92, 0xc4, 0x32, 0x09, 0xba, 0x75,
   0x03, 0x1a, 0xd1, 0x02, 0x18, 0x50, 0x13, 0x00, 0x52, 0xdd, 0x7b, 0x54,
   0x04, 0x21, 0x00, 0x1a, 0x1e, 0x28, 0x10, 0x27, 0xcd, 0x01, 0x5a, 0x25,
   0x5b, 0x25, 0x00, 0xa6, 0x01, 0x82, 0x94, 0x81, 0x09, 0x31, 0x04, 0x00,
   0x16, 0x1e, 0x42, 0x23, 0x9c, 0x03, 0x00, 0x07, 0x56, 0x80, 0xf2, 0x40,
   0x36, 0x02, 0x1b, 0x01, 0x0b, 0x88, 0x02, 0x12, 0x00, 0x84, 0x7b, 0x48,
   0x88, 0x42, 0x10, 0x00, 0xe3, 0x11, 0x21, 0xcf, 0x25, 0x49, 0x01, 0x60,
   0x1b, 0xec, 0x28, 0x2c, 0xc8, 0x01, 0x2f, 0x81, 0x47, 0x63, 0xcd, 0x39,
   0x00, 0x8c, 0x08, 0x4a, 0x35, 0x08, 0x67, 0x02, 0x1e, 0x68, 0x2e, 0x43,
   0x80, 0x09, 0x02, 0x83, 0x64, 0xd8, 0x84, 0xe8, 0x7e, 0x00, 0x4c, 0xcc,
   0x40, 0x86, 0x03, 0x06, 0x01, 0x8c, 0xa0, 0x68, 0x59, 0x80, 0xac, 0x01,
   0x72, 0xa4, 0x79, 0xc2, 0xd5, 0xa4, 0x02, 0x2c, 0x88, 0x28, 0xc2, 0x08,
   0x61, 0x01, 0x91, 0xc0, 0x32, 0x10, 0x53, 0x90, 0x01, 0x1b, 0x8c, 0x80,
   0xa9, 0x42, 0xc0, 0x00, 0xfe, 0x01, 0x04, 0xa0, 0x33, 0x49, 0x00, 0x26,
   0x49, 0x04, 0x20, 0x39, 0x52, 0x01, 0x23, 0xe1, 0x36, 0x4a, 0x8a, 0xa0,
   0x01, 0x57, 0x28, 0xae, 0x01, 0x00, 0x02, 0x03, 0x89, 0x05, 0x25, 0x48,
   0x3a, 0x02, 0x00, 0x14, 0x6a, 0xc1, 0xbb, 0xa4, 0xf9, 0x02, 0x89, 0x3c,
   0x8b, 0xba, 0x42, 0x64, 0x02, 0xc1, 0x26, 0xfb, 0x80, 0x50, 0x44, 0x01,
   0x96, 0xfc, 0x9f, 0x71, 0x84, 0x51, 0x00, 0x56, 0x40, 0xa3, 0x38, 0x0b,
   0x00, 0x00, 0x73, 0x48, 0x80, 0x00, 0x7d, 0x43, 0x02, 0x48, 0xb6, 0xa1,
   0xc9, 0x6a, 0x92, 0x00, 0x6f, 0x48, 0x48, 0x88, 0xa8, 0x68, 0x02, 0xb2,
   0x24, 0x06, 0x00, 0x1e, 0x86, 0x02, 0x42, 0xd8, 0x2b, 0x84, 0x02, 0x64,
   0x02, 0x0e, 0x14, 0x00, 0x41, 0x16, 0x08, 0x02, 0x83, 0xea, 0x08, 0x01,
   0xbb, 0x56, 0x03, 0x36, 0x02, 0x32, 0x90, 0x98, 0xda, 0x03, 0x11, 0x46,
   0xf2, 0x63, 0x00, 0x23, 0x02, 0x59, 0x24, 0x13, 0xd8, 0x20, 0x27, 0x00,
   0x08, 0xa2, 0xd9, 0x10, 0xe2, 0x34, 0x03, 0xcf, 0x08, 0xa5, 0xa7, 0x50,
   0x67, 0x00};
