#define sea_shells_width 64
#define sea_shells_height 64
static char sea_shells_bits[] = {
   0x00, 0x00, 0x00, 0x00, 0x80, 0x00, 0x01, 0x02, 0x00, 0x00, 0x02, 0x00,
   0x80, 0x00, 0x00, 0x02, 0x04, 0x00, 0x00, 0x02, 0x42, 0x00, 0x01, 0x44,
   0x00, 0x00, 0x00, 0x00, 0x40, 0x08, 0x20, 0x04, 0x00, 0x00, 0x00, 0x00,
   0x20, 0x00, 0x00, 0x08, 0x00, 0x02, 0x00, 0x00, 0x20, 0x08, 0x21, 0x08,
   0x00, 0x00, 0x00, 0x00, 0x20, 0x01, 0x00, 0x09, 0x00, 0x00, 0x10, 0x00,
   0x20, 0x10, 0x11, 0x08, 0x00, 0x00, 0x00, 0x00, 0x20, 0x01, 0x00, 0x09,
   0x08, 0xe0, 0x00, 0x0e, 0x20, 0x20, 0x08, 0x08, 0x00, 0x10, 0x01, 0x11,
   0x20, 0x02, 0x81, 0x08, 0x00, 0x10, 0x82, 0x10, 0x40, 0x04, 0x40, 0x04,
   0x00, 0x48, 0x82, 0x24, 0x40, 0x40, 0x04, 0x04, 0x00, 0x08, 0x44, 0x20,
   0x80, 0x08, 0x20, 0x02, 0x00, 0x28, 0x45, 0x29, 0x80, 0x80, 0x02, 0x02,
   0x00, 0x08, 0x28, 0x20, 0x00, 0x21, 0x08, 0x01, 0x80, 0xa8, 0xaa, 0x2a,
   0x80, 0x02, 0x80, 0x02, 0x00, 0x08, 0x10, 0x20, 0x80, 0x44, 0x44, 0x02,
   0x00, 0xa8, 0xaa, 0x2a, 0x80, 0x88, 0x22, 0x02, 0x00, 0x08, 0x28, 0x20,
   0x80, 0x10, 0x10, 0x02, 0x00, 0x48, 0x28, 0x24, 0x80, 0x20, 0x08, 0x02,
   0x00, 0x10, 0x45, 0x11, 0x01, 0x41, 0x04, 0x01, 0x00, 0x50, 0x44, 0x14,
   0x00, 0xbe, 0xfb, 0x00, 0x02, 0x11, 0x44, 0x10, 0x00, 0x00, 0x00, 0x00,
   0x00, 0x90, 0x44, 0x12, 0x00, 0x00, 0x00, 0x00, 0x00, 0x10, 0x44, 0x10,
   0x00, 0x00, 0x02, 0x00, 0x00, 0x20, 0x82, 0x08, 0x00, 0x00, 0x00, 0x00,
   0x00, 0x20, 0x82, 0x08, 0x04, 0x00, 0x00, 0x00, 0x00, 0xc0, 0x01, 0x07,
   0x00, 0x00, 0x00, 0x00, 0x00, 0x00, 0x00, 0x00, 0x00, 0x00, 0x00, 0x40,
   0x08, 0x04, 0x00, 0x00, 0x00, 0x00, 0x00, 0x00, 0x00, 0x00, 0x00, 0x00,
   0x00, 0x00, 0x00, 0x00, 0x00, 0x00, 0x80, 0x00, 0x00, 0x00, 0x00, 0x00,
   0x00, 0x00, 0x00, 0x00, 0x00, 0x00, 0x00, 0x00, 0x00, 0x00, 0x01, 0x40,
   0x00, 0x08, 0x00, 0x00, 0x00, 0x00, 0x00, 0x00, 0x00, 0x00, 0x00, 0x00,
   0x07, 0x00, 0x00, 0x00, 0x60, 0x00, 0x80, 0xf0, 0x18, 0x01, 0x00, 0x00,
   0x58, 0x00, 0x00, 0x0c, 0x20, 0x00, 0x00, 0x00, 0x24, 0x00, 0x00, 0x02,
   0x41, 0x00, 0x00, 0xc0, 0x23, 0x00, 0x00, 0x81, 0x82, 0x00, 0x00, 0x3c,
   0x10, 0x80, 0x80, 0x40, 0x02, 0x01, 0x00, 0x02, 0x13, 0x00, 0x40, 0x40,
   0x02, 0x01, 0x00, 0x3d, 0x0c, 0x00, 0x40, 0x40, 0x62, 0x22, 0x88, 0xc2,
   0x08, 0x00, 0x20, 0x46, 0x92, 0x02, 0x80, 0x00, 0x04, 0x00, 0x20, 0x49,
   0x49, 0x02, 0x80, 0x38, 0x04, 0x10, 0x20, 0x92, 0x24, 0x02, 0x80, 0x46,
   0x04, 0x00, 0x20, 0x24, 0x18, 0x02, 0x80, 0x00, 0x02, 0x00, 0x20, 0x18,
   0x00, 0x02, 0x00, 0x1d, 0x02, 0x00, 0x20, 0x80, 0x0c, 0x02, 0x00, 0xa1,
   0x01, 0x00, 0x20, 0x40, 0x32, 0x09, 0x00, 0x41, 0x41, 0x00, 0x40, 0x20,
   0x22, 0x01, 0x00, 0xb2, 0x01, 0x00, 0x40, 0x90, 0xbc, 0x00, 0x00, 0xce,
   0x00, 0x00, 0x80, 0x48, 0x40, 0x00, 0x10, 0x5a, 0x00, 0x00, 0x00, 0x31,
   0x20, 0x00, 0x00, 0x2e, 0x00, 0x00, 0x01, 0x02, 0x18, 0x00, 0x00, 0x1a,
   0x80, 0x00, 0x00, 0x0c, 0x07, 0x00, 0x00, 0x0e, 0x00, 0x00, 0x00, 0xf0,
   0x00, 0x00, 0x00, 0x02, 0x00, 0x00, 0x00, 0x00, 0x00, 0x00, 0x00, 0x00,
   0x00, 0x00, 0x00, 0x00, 0x03, 0x00, 0x00, 0x80, 0x00, 0x00, 0x00, 0x00,
   0x00, 0x00, 0x00, 0x00, 0x00, 0xe0, 0x0f, 0x00, 0x00, 0x08, 0x00, 0x00,
   0x00, 0x18, 0x30, 0x00, 0x00, 0x00, 0x00, 0x00, 0x00, 0x06, 0xc0, 0x00,
   0x00, 0x00, 0x00, 0x00, 0x00, 0x01, 0x00, 0x01};
