#define turkish_flowers_width 50
#define turkish_flowers_height 50
static char turkish_flowers_bits[] = {
   0x00, 0x00, 0x00, 0x00, 0x00, 0x00, 0x00, 0x00, 0x00, 0x00, 0x00, 0x00,
   0x00, 0x00, 0x00, 0x00, 0x00, 0xe0, 0x01, 0x00, 0x00, 0xf3, 0x07, 0x00,
   0x20, 0x02, 0xe0, 0x01, 0x0c, 0xf8, 0x0f, 0xc0, 0x02, 0x18, 0x02, 0x02,
   0x00, 0x30, 0x80, 0x02, 0x06, 0x02, 0x01, 0x00, 0x40, 0x00, 0x81, 0x01,
   0x03, 0xf1, 0x01, 0x80, 0xe0, 0x61, 0x80, 0x03, 0xa9, 0x06, 0x00, 0xf9,
   0x17, 0xc0, 0x01, 0x55, 0x09, 0x00, 0x1e, 0x0e, 0xe0, 0x00, 0x0f, 0x0a,
   0x00, 0x46, 0x06, 0xff, 0x00, 0xf1, 0x11, 0x00, 0x2b, 0x07, 0x7e, 0x00,
   0x03, 0x16, 0x00, 0xc3, 0x01, 0x7c, 0x00, 0x05, 0x18, 0x80, 0xf1, 0x00,
   0x38, 0x00, 0x0a, 0x00, 0x80, 0x3f, 0xc0, 0x3f, 0x02, 0x12, 0x00, 0x80,
   0x2f, 0x80, 0x1f, 0x02, 0x35, 0x00, 0x00, 0x20, 0x00, 0x1f, 0x02, 0x26,
   0x00, 0x00, 0x20, 0x00, 0x0e, 0x01, 0x65, 0x00, 0x00, 0x40, 0xe0, 0x0f,
   0x01, 0x46, 0x00, 0x00, 0x40, 0xc0, 0x8f, 0x02, 0xc5, 0x00, 0x00, 0x80,
   0x80, 0x8f, 0x01, 0xc6, 0x01, 0x00, 0x00, 0x01, 0x8f, 0x02, 0xc5, 0x7f,
   0x00, 0x00, 0xf1, 0x8f, 0x01, 0xc6, 0x83, 0x00, 0x00, 0xe1, 0x8f, 0x02,
   0xc5, 0x07, 0x01, 0x00, 0xc2, 0x8f, 0x01, 0xc6, 0x07, 0x02, 0x00, 0x82,
   0x8f, 0x02, 0xc5, 0x0f, 0x04, 0x00, 0x84, 0x8f, 0x01, 0xc6, 0x1f, 0x04,
   0x00, 0x08, 0x8f, 0x02, 0xc5, 0x3f, 0x08, 0x00, 0x10, 0x8e, 0x01, 0xc6,
   0x03, 0x08, 0x00, 0xe0, 0x8f, 0x02, 0xc5, 0x07, 0x08, 0x00, 0x00, 0x8c,
   0x01, 0xc2, 0x0f, 0x10, 0x00, 0x00, 0x98, 0x02, 0xc2, 0x1f, 0x20, 0x00,
   0x00, 0x90, 0x01, 0xe1, 0x01, 0x20, 0x00, 0x00, 0xb0, 0x02, 0xe1, 0x03,
   0xc0, 0x07, 0x00, 0x20, 0x01, 0xf1, 0x07, 0xf0, 0x07, 0x00, 0x40, 0x01,
   0xf0, 0x0f, 0x7c, 0x06, 0x00, 0x80, 0x02, 0x78, 0x00, 0x0e, 0x03, 0x00,
   0x00, 0x03, 0xf8, 0x80, 0x53, 0x03, 0x00, 0x3e, 0x02, 0xfc, 0x81, 0x8b,
   0x01, 0x80, 0xc1, 0x03, 0xfc, 0xc3, 0xe1, 0x00, 0x60, 0x2a, 0x03, 0x1e,
   0xa0, 0xff, 0x00, 0xc0, 0x81, 0x02, 0x0f, 0x18, 0x1e, 0x01, 0x00, 0x7e,
   0x02, 0x07, 0x06, 0x02, 0x02, 0x00, 0x00, 0x02, 0x83, 0x01, 0x05, 0x04,
   0x00, 0x00, 0x01, 0x61, 0x00, 0x0d, 0x18, 0x00, 0xfe, 0x00, 0x1e, 0x00,
   0x11, 0xe0, 0xff, 0x01, 0x03, 0x00, 0x00, 0x1e, 0x00, 0x00, 0x00, 0x00,
   0x00, 0x00, 0x00, 0x00, 0x00, 0x00, 0x00, 0x00, 0x00, 0x00, 0x00, 0x00,
   0x00, 0x00};
