#define turkish_hex_width 50
#define turkish_hex_height 50
static char turkish_hex_bits[] = {
   0x89, 0xaa, 0x08, 0x83, 0x54, 0x45, 0x02, 0xbb, 0xb6, 0xae, 0xd7, 0xb5,
   0x75, 0x03, 0x81, 0x88, 0x00, 0x03, 0x44, 0x04, 0x02, 0xab, 0xaa, 0xaa,
   0x57, 0x55, 0x55, 0x03, 0x81, 0x80, 0x01, 0x03, 0x04, 0x04, 0x02, 0xab,
   0xaa, 0x7a, 0x7b, 0x55, 0x55, 0x03, 0x01, 0x41, 0x90, 0x27, 0x08, 0x02,
   0x02, 0xbd, 0xbe, 0xda, 0x6f, 0xf5, 0xf5, 0x02, 0x13, 0x00, 0xf0, 0x3c,
   0x00, 0x20, 0x03, 0xb6, 0xaa, 0x7a, 0x78, 0x55, 0xb5, 0x01, 0x1c, 0x00,
   0x18, 0x70, 0x00, 0xe0, 0x00, 0xb8, 0xaa, 0x0e, 0xc0, 0x55, 0x25, 0x00,
   0x72, 0x08, 0x66, 0x8c, 0x41, 0x98, 0x00, 0xe5, 0xb6, 0x93, 0x12, 0xb7,
   0x4d, 0x01, 0x81, 0xa2, 0x81, 0x02, 0x16, 0x05, 0x01, 0x00, 0xe3, 0x00,
   0x01, 0x1c, 0x03, 0x02, 0x08, 0x3e, 0x10, 0x11, 0xf0, 0x01, 0x02, 0x44,
   0x3c, 0x22, 0x89, 0xf0, 0x40, 0x02, 0x43, 0x18, 0xc2, 0x87, 0x60, 0x84,
   0x03, 0x2c, 0x18, 0x34, 0x58, 0x60, 0x6c, 0x00, 0x10, 0x18, 0x08, 0x20,
   0x60, 0x10, 0x00, 0x91, 0x18, 0x89, 0x23, 0x62, 0x12, 0x03, 0x22, 0x99,
   0x44, 0x44, 0x64, 0x89, 0x00, 0x25, 0x99, 0xa4, 0x4a, 0x64, 0x49, 0x01,
   0xe4, 0x18, 0x27, 0xc8, 0x63, 0x4e, 0x00, 0x25, 0x99, 0xa4, 0x4a, 0x64,
   0x49, 0x01, 0x22, 0x99, 0x44, 0x44, 0x64, 0x89, 0x00, 0x91, 0x18, 0x89,
   0x23, 0x62, 0x12, 0x03, 0x10, 0x18, 0x08, 0x20, 0x60, 0x10, 0x00, 0x2c,
   0x18, 0x34, 0x58, 0x60, 0x68, 0x00, 0x43, 0x18, 0xc2, 0x87, 0x60, 0x8c,
   0x03, 0x44, 0x18, 0x22, 0x89, 0x60, 0x40, 0x02, 0x08, 0x18, 0x10, 0x11,
   0x60, 0x00, 0x02, 0x00, 0x3c, 0x00, 0x01, 0xf0, 0x00, 0x02, 0x01, 0x7e,
   0x80, 0x02, 0xfc, 0x01, 0x01, 0x89, 0xe3, 0x91, 0x12, 0x1e, 0x27, 0x01,
   0xc6, 0xa2, 0x63, 0x0c, 0x17, 0xcd, 0x00, 0xe0, 0xb6, 0x07, 0x80, 0xb5,
   0x1d, 0x00, 0x30, 0x08, 0x0c, 0xc0, 0x40, 0x30, 0x00, 0xb8, 0xaa, 0x1e,
   0x60, 0x55, 0xf5, 0x00, 0x16, 0x00, 0x70, 0x38, 0x00, 0xa0, 0x01, 0xb3,
   0xaa, 0xfa, 0x7c, 0x55, 0x35, 0x03, 0x1d, 0x00, 0xd0, 0x2f, 0x00, 0xe0,
   0x02, 0xab, 0xbe, 0x1a, 0x63, 0xf5, 0x55, 0x03, 0x01, 0x41, 0x70, 0x3b,
   0x08, 0x02, 0x02, 0xab, 0xaa, 0xaa, 0x57, 0x55, 0x55, 0x03, 0x81, 0x80,
   0x00, 0x03, 0x04, 0x04, 0x02, 0xab, 0xaa, 0xaa, 0x57, 0x55, 0x55, 0x03,
   0xa1, 0x94, 0x02, 0x03, 0xa5, 0x14, 0x02, 0xeb, 0xaa, 0xab, 0x57, 0x57,
   0x5d, 0x03};
